<svg version="1.2" xmlns="http://www.w3.org/2000/svg" viewBox="0 0 1613 352" width="1613" height="352">
	<title>OPEN_BIG</title>
	<style>
		.s0 { fill: #ffffff } 
	</style>
	<g id="Page-1">
		<g id="Desktop">
			<g id="Group-4">
				<path id="Fill-1" fill-rule="evenodd" class="s0" d="m0 151.1c0-93.6 63.3-130.7 119.7-130.7 60.1 0 116.8 36.7 116.8 125 0 94.4-63.3 130.4-119.6 130.4-60.2 0-116.9-39.2-116.9-124.7zm170 2.2c0-83.4-14-117.9-52.4-117.9-34 0-51.1 24.2-51.1 108.3 0 82.9 13.3 117.1 52.5 117.1 34.6 0 51-23.8 51-107.5z"/>
				<path id="Fill-5" fill-rule="evenodd" class="s0" d="m466.2 178.2c0-62 45.1-96.5 91.3-96.5 47.7 0 77.7 24 79.4 86.8 0 1.2-1 2.2-2.2 2.2h-111c-1.2 0-2.2 1.1-2.2 2.3 1.6 56.6 23.2 72.2 58.8 72.2 17.3 0 31.3-4.1 43-9.4 0.9-0.4 1.9-0.2 2.5 0.5l4.7 5.6c0.7 0.9 0.7 2.1-0.1 2.9-12.8 13.7-38.7 31-72.9 31-60.9 0-91.3-37-91.3-97.6zm55.3-21l59.8-3.2c0-43.1-5.6-58.8-26.6-58.8-17.8 0-31.8 17.1-33.2 62zm534 22.1c0-68.4 47.5-97.6 94.8-97.6 50.7 0 95.2 31 95.2 95.8 0 68.4-46.9 98.3-95.2 98.3-50.7 0-94.8-31.3-94.8-96.5zm131.2 1.8c0-72-13.7-85.5-37.5-85.5-22 0-35 16.4-35 77.6 0 73 11.6 88.7 37.1 88.7 21 0 35.4-12.5 35.4-80.8zm77.4-1.8c0-68.4 47.6-97.6 94.9-97.6 50.7 0 95.1 31 95.1 95.8 0 68.4-46.8 98.3-95.1 98.3-50.8 0-94.9-31.3-94.9-96.5zm131.3 1.8c0-72-13.7-85.5-37.5-85.5-22 0-35 16.4-35 77.6 0 73 11.6 88.7 37.1 88.7 21 0 35.4-12.5 35.4-80.8zm-568.8-51.7v139.3c0 1.6-1.3 2.8-2.8 2.8h-50.5c-1.5 0-2.7-1.2-2.7-2.8v-125.4c0-21.7-7.7-28.5-24.2-28.5-12.2 0-24.8 2.8-32.5 4.6v149.3c0 1.6-1.3 2.8-2.8 2.8h-50.1c-1.5 0-2.7-1.2-2.7-2.8v-178.6c0-1.4 1-2.7 2.5-2.8l48.9-5.7c1.7-0.2 3.2 1.2 3.1 2.9l-0.7 22.5h1.4c18.6-13.6 41.7-25.3 67.2-25.3 29.8 0 45.9 15.6 45.9 47.7zm205.7 137.6c0 1.7-1.2 3.1-2.9 3.3l-48 5.5c-2 0.3-3.8-1.4-3.7-3.5l0.7-19.7h-1.4c-15 13.2-34.6 23.2-59.1 23.2-34.7 0-68.6-25.6-68.6-90.5 0-74.1 46.9-103.6 101.5-103.6 9.4 0 19.2 1.8 26.6 3.9 0 0-0.7-13.2-0.7-26v-49.9c0-1.5 1.1-2.7 2.5-2.9l50.4-5.8c2-0.2 3.7 1.5 3.6 3.5-0.3 6.9-0.9 23.9-0.9 42.3zm-55.6-156.1c-6-7.5-14.4-15-27.3-15-25.2 0-42.7 18.9-42.7 77.6 0 56 14 74.1 40.6 74.1 14.3 0 23.8-5.7 29.4-7.8zm636.1-2.5c0 17.1-12.2 28.1-25.8 28.1-15.1 0-20.3-6.4-27-17.4-2.1-3.9-4.2-4.6-7.3-4.6-6.3 0-14.4 4.6-19.3 9.2v144.5c0 1.8-1.4 3.3-3.3 3.3h-49c-1.8 0-3.3-1.5-3.3-3.3v-178c0-1.5 1.1-2.8 2.5-2.9l48.4-5.5c2-0.3 3.7 1.3 3.7 3.4l-0.7 23.9h1.4c10.8-11.7 30.8-27.4 51.1-27.4 16.8 0 28.6 9.3 28.6 26.7zm-1167.2 60.9c0 74.1-42.7 106.5-101.1 106.5-7.3 0-18.9-1.4-26.6-3.5 0 0 0.4 9.2 0.4 21.7v48.3c0 1.5-1.1 2.7-2.6 2.9l-49.9 5.8c-1.7 0.2-3.2-1.2-3.2-2.9v-257.9c0-1.5 1.1-2.8 2.6-2.9l48.5-5.6c1.9-0.2 3.6 1.3 3.5 3.3l-0.7 21.3h1.8c14.7-12.9 34.3-24.6 58.7-24.6 33.3 0 68.6 22.4 68.6 87.6zm-57.4 12.1c0-50.9-15-68.7-41.6-68.7-14 0-22.7 4.3-28.3 6.4v129.6c6.3 7.5 15.7 12.9 27.6 12.9 27.6 0 42.3-15 42.3-80.2z"/>
			</g>
		</g>
	</g>
</svg>