<svg version="1.2" xmlns="http://www.w3.org/2000/svg" viewBox="0 0 1414 527" width="1414" height="527">
	<title>Bitmap (1)-svg</title>
	<style>
		.s0 { fill: #ffffff } 
	</style>
	<path id="Layer" fill-rule="evenodd" class="s0" d="m179.5 1.8c14.5-1 29.3-1.5 43.6 1.5 15 3.8 27.6 15.8 32.2 30.6 4.1 12.5 2.3 26.7-4.6 37.9-8.9 14.7-26.5 23.7-43.8 21.9-23.3-2.4-47.3 3.4-67 16.2-18.3 11.7-32.7 29.5-40.3 50-7.6 19.6-8.7 41.7-3.2 62 5.3 20.4 17.2 38.9 33.3 52.4 7.3 6.2 12.8 14.8 15 24.2 2.9 12.2 0.7 25.6-6.3 36-7.2 11-19.3 18.7-32.4 20.4-12.7 1.9-26-1.8-35.9-10-19.7-16.3-36-36.5-47.9-59.1-15.3-29.4-23.2-62.7-22.1-95.9 1.2-43.1 17.5-85.5 45.2-118.5 33.1-39.9 82.7-65.3 134.2-69.6zm46 171.9c13.6-3.1 28.5 0.6 39.2 9.5 34.4 28.8 58.1 69.9 66.1 114 9.2 48.9-1.6 101-29.2 142.4-20.8 31.8-51.4 57.1-86.5 71.9-30.1 12.7-63.5 17.9-96.1 14.5-12-1.5-23.5-7.8-30.8-17.4-7.1-8.8-10.5-20.3-9.7-31.5 0.8-13.6 8.1-26.6 19.1-34.4 9-6.5 20.4-9.5 31.5-8.4 22 2.2 44.7-3.1 63.5-14.7 19.2-11.6 34.4-29.8 42.3-50.8 8.2-21.2 9-45.1 2.3-66.7-5.8-18.7-16.9-35.8-31.9-48.3-7.2-6.2-12.5-14.5-14.8-23.7-3.4-13.2-0.6-27.9 7.7-38.9 6.6-8.9 16.5-15.3 27.3-17.6zm311.3 13.2c19-3.2 38.5-2 57.2 2 7.3 1.5 14.6 3 21.6 5.6-2.7 12.3-5.5 24.6-8.2 36.9-16.8-6.8-35.2-10-53.3-8.7-7.1 0.8-14.5 2.6-20 7.5-4.7 4.1-5.3 11.1-4.1 16.9 1 5.4 5.4 9.5 9.9 12.3 10.7 7 23.4 9.9 35 14.9 14.6 6.3 30 13 40.1 25.9 8.9 10.7 10.6 25.4 10 38.9-0.6 12.9-5.8 25.8-15.6 34.4-13.1 11.7-30.9 16.1-48 17.8-12 1.1-24.2 1-36.2 0.1-15.5-1.1-30.6-5.5-45.2-10.6 2.6-12.7 5.3-25.3 7.9-38 7.7 2.9 15.6 5.5 23.5 7.7 14.2 3.7 29.1 4.5 43.7 3.5 6.2-0.7 12.7-1.4 17.9-5 6.5-4.6 7.8-13.8 5.1-20.8-2.9-7.2-10.2-11.2-16.7-14.6-17.9-9.3-38.4-13.1-54.8-25.1-10-7.1-18.5-17.2-20.9-29.5-3.2-15.7-1.9-33.2 7.5-46.7 10.1-14.2 26.8-22.4 43.6-25.4zm151 21.9c13.7-12.9 31.8-20.7 50.4-23.1 16.2-1.7 32.9 0 48 6.2 17.5 7.2 31.6 21.6 39.1 38.9 9.9 22.5 10.8 47.7 9.2 71.9-43.5 0-87 0-130.5 0.1 1.1 14.7 7 30.1 19.4 39 13.7 9.7 31.3 11.2 47.6 10.6 15.5-0.6 30.9-3.8 45.3-9.3 2 12.5 4.1 24.9 6.1 37.4-3.8 1.7-7.7 3.2-11.7 4.4-25.9 6.6-53.2 9.8-79.8 4.7-15.5-2.8-30.4-9.7-42.6-19.9-13.7-11.7-22.9-28.2-27.3-45.6-4.7-18.6-5.2-38-2.6-56.9 3-22 13.2-43.2 29.4-58.4zm36.8 21.9c-12.8 8.4-18.1 24-20.2 38.5q42.6 0 85.1 0c-0.1-12.1-3.3-24.8-11.7-33.8-13.1-15-37.5-15.9-53.2-4.7zm583.7-43.5c16.1-3.5 33-2.6 48.8 1.9 18.7 5.4 34.9 18.6 44.1 35.7 9.2 17 12.1 36.7 12.8 55.8v8c-0.3 4.7-0.5 9.4-0.7 14.1-43.5 0-87 0-130.5 0 1.1 14.9 7.1 30.2 19.4 39.1 9.3 6.6 20.6 9.5 31.8 10.4 20.7 1.4 41.7-1.7 61.1-9.1 2.1 12.5 4 24.9 6.1 37.3-7.6 3.6-15.7 5.8-24 7.2-22.2 4.9-45.5 6.3-67.9 1.9-17.7-3.3-34.5-11.7-47.3-24.5-10.4-10.9-17.8-24.5-21.7-39.1-5.2-19.1-5.8-39.3-3-58.9 3-21.2 12.4-41.7 27.9-56.7 11.5-11.9 27.1-19.3 43.1-23.1zm-13.1 50.9c-7 8.9-10.3 20.1-12 31.1 28.4 0.1 56.7 0 85.1 0-0.1-11.3-2.8-23.2-10.3-32.1-6.7-8.9-17.9-13.9-29-13.9-12.8-0.6-25.6 5.2-33.8 14.9zm-373.1-26.1c19.7-14.1 43.6-22.4 67.9-22.9 1 1 0.9 2.6 1.4 3.8 3.5 12 6.9 23.9 10.5 35.8-21.6 0.1-43.9 5.7-61.3 19.1-9.6 7.6-18.2 18.5-18.5 31.3 0 36.1 0 72.3 0 108.5q-22.9 0-45.9 0 0.1-98.9 0-197.7 23-0.1 45.9-0.1c0 7.4 0 14.8 0 22.2zm105.9-22c16.2 0 32.5-0.1 48.7 0 12 48.7 27.8 96.5 46.5 143 7.7-19.9 15.1-39.9 21.7-60.2 9.1-27.3 17.8-54.9 24.8-82.8q23.6 0 47.2 0c-12 42.9-26.5 85.1-43.5 126.4-9.7 23.9-20 47.6-31.3 70.8-13.1 0-26.2 0-39.2 0-9.6-19.4-18.3-39.2-26.8-59.1-19.2-44.9-34.9-91.2-48.1-138.1z"/>
</svg>