<?xml version="1.0" encoding="utf-8" standalone="no"?>
<!DOCTYPE svg PUBLIC "-//W3C//DTD SVG 1.1//EN"
  "http://www.w3.org/Graphics/SVG/1.1/DTD/svg11.dtd">
<svg xmlns:xlink="http://www.w3.org/1999/xlink" width="1287.888818pt" height="424.875312pt" viewBox="0 0 1287.888818 424.875312" xmlns="http://www.w3.org/2000/svg" version="1.1">
 <metadata>
  <rdf:RDF xmlns:dc="http://purl.org/dc/elements/1.1/" xmlns:cc="http://creativecommons.org/ns#" xmlns:rdf="http://www.w3.org/1999/02/22-rdf-syntax-ns#">
   <cc:Work>
    <dc:type rdf:resource="http://purl.org/dc/dcmitype/StillImage"/>
    <dc:date>2025-10-03T02:37:57.935247</dc:date>
    <dc:format>image/svg+xml</dc:format>
    <dc:creator>
     <cc:Agent>
      <dc:title>Matplotlib v3.10.0, https://matplotlib.org/</dc:title>
     </cc:Agent>
    </dc:creator>
   </cc:Work>
  </rdf:RDF>
 </metadata>
 <defs>
  <style type="text/css">*{stroke-linejoin: round; stroke-linecap: butt}</style>
 </defs>
 <g id="figure_1">
  <g id="patch_1">
   <path d="M 0 424.875312 
L 1287.888818 424.875312 
L 1287.888818 0 
L 0 0 
L 0 424.875312 
z
" style="fill: none"/>
  </g>
  <g id="axes_1">
   <g id="patch_2">
    <path d="M 63.821562 379.98 
L 1193.02918 379.98 
L 1193.02918 7.2 
L 63.821562 7.2 
L 63.821562 379.98 
z
" style="fill: none"/>
   </g>
   <g id="matplotlib.axis_1">
    <g id="xtick_1">
     <g id="line2d_1">
      <defs>
       <path id="m0396f1e46c" d="M 0 0 
L 0 3.5 
" style="stroke: #cbd5e1; stroke-width: 0.8"/>
      </defs>
      <g>
       <use xlink:href="#m0396f1e46c" x="132.419099" y="379.98" style="fill: #cbd5e1; stroke: #cbd5e1; stroke-width: 0.8"/>
      </g>
     </g>
     <g id="text_1">
      <!-- 2006 -->
      <g style="fill: #cbd5e1" transform="translate(117.149099 398.598125) scale(0.12 -0.12)">
       <defs>
        <path id="DejaVuSans-32" d="M 1228 531 
L 3431 531 
L 3431 0 
L 469 0 
L 469 531 
Q 828 903 1448 1529 
Q 2069 2156 2228 2338 
Q 2531 2678 2651 2914 
Q 2772 3150 2772 3378 
Q 2772 3750 2511 3984 
Q 2250 4219 1831 4219 
Q 1534 4219 1204 4116 
Q 875 4013 500 3803 
L 500 4441 
Q 881 4594 1212 4672 
Q 1544 4750 1819 4750 
Q 2544 4750 2975 4387 
Q 3406 4025 3406 3419 
Q 3406 3131 3298 2873 
Q 3191 2616 2906 2266 
Q 2828 2175 2409 1742 
Q 1991 1309 1228 531 
z
" transform="scale(0.015625)"/>
        <path id="DejaVuSans-30" d="M 2034 4250 
Q 1547 4250 1301 3770 
Q 1056 3291 1056 2328 
Q 1056 1369 1301 889 
Q 1547 409 2034 409 
Q 2525 409 2770 889 
Q 3016 1369 3016 2328 
Q 3016 3291 2770 3770 
Q 2525 4250 2034 4250 
z
M 2034 4750 
Q 2819 4750 3233 4129 
Q 3647 3509 3647 2328 
Q 3647 1150 3233 529 
Q 2819 -91 2034 -91 
Q 1250 -91 836 529 
Q 422 1150 422 2328 
Q 422 3509 836 4129 
Q 1250 4750 2034 4750 
z
" transform="scale(0.015625)"/>
        <path id="DejaVuSans-36" d="M 2113 2584 
Q 1688 2584 1439 2293 
Q 1191 2003 1191 1497 
Q 1191 994 1439 701 
Q 1688 409 2113 409 
Q 2538 409 2786 701 
Q 3034 994 3034 1497 
Q 3034 2003 2786 2293 
Q 2538 2584 2113 2584 
z
M 3366 4563 
L 3366 3988 
Q 3128 4100 2886 4159 
Q 2644 4219 2406 4219 
Q 1781 4219 1451 3797 
Q 1122 3375 1075 2522 
Q 1259 2794 1537 2939 
Q 1816 3084 2150 3084 
Q 2853 3084 3261 2657 
Q 3669 2231 3669 1497 
Q 3669 778 3244 343 
Q 2819 -91 2113 -91 
Q 1303 -91 875 529 
Q 447 1150 447 2328 
Q 447 3434 972 4092 
Q 1497 4750 2381 4750 
Q 2619 4750 2861 4703 
Q 3103 4656 3366 4563 
z
" transform="scale(0.015625)"/>
       </defs>
       <use xlink:href="#DejaVuSans-32"/>
       <use xlink:href="#DejaVuSans-30" transform="translate(63.623047 0)"/>
       <use xlink:href="#DejaVuSans-30" transform="translate(127.246094 0)"/>
       <use xlink:href="#DejaVuSans-36" transform="translate(190.869141 0)"/>
      </g>
     </g>
    </g>
    <g id="xtick_2">
     <g id="line2d_2">
      <g>
       <use xlink:href="#m0396f1e46c" x="238.198994" y="379.98" style="fill: #cbd5e1; stroke: #cbd5e1; stroke-width: 0.8"/>
      </g>
     </g>
     <g id="text_2">
      <!-- 2008 -->
      <g style="fill: #cbd5e1" transform="translate(222.928994 398.598125) scale(0.12 -0.12)">
       <defs>
        <path id="DejaVuSans-38" d="M 2034 2216 
Q 1584 2216 1326 1975 
Q 1069 1734 1069 1313 
Q 1069 891 1326 650 
Q 1584 409 2034 409 
Q 2484 409 2743 651 
Q 3003 894 3003 1313 
Q 3003 1734 2745 1975 
Q 2488 2216 2034 2216 
z
M 1403 2484 
Q 997 2584 770 2862 
Q 544 3141 544 3541 
Q 544 4100 942 4425 
Q 1341 4750 2034 4750 
Q 2731 4750 3128 4425 
Q 3525 4100 3525 3541 
Q 3525 3141 3298 2862 
Q 3072 2584 2669 2484 
Q 3125 2378 3379 2068 
Q 3634 1759 3634 1313 
Q 3634 634 3220 271 
Q 2806 -91 2034 -91 
Q 1263 -91 848 271 
Q 434 634 434 1313 
Q 434 1759 690 2068 
Q 947 2378 1403 2484 
z
M 1172 3481 
Q 1172 3119 1398 2916 
Q 1625 2713 2034 2713 
Q 2441 2713 2670 2916 
Q 2900 3119 2900 3481 
Q 2900 3844 2670 4047 
Q 2441 4250 2034 4250 
Q 1625 4250 1398 4047 
Q 1172 3844 1172 3481 
z
" transform="scale(0.015625)"/>
       </defs>
       <use xlink:href="#DejaVuSans-32"/>
       <use xlink:href="#DejaVuSans-30" transform="translate(63.623047 0)"/>
       <use xlink:href="#DejaVuSans-30" transform="translate(127.246094 0)"/>
       <use xlink:href="#DejaVuSans-38" transform="translate(190.869141 0)"/>
      </g>
     </g>
    </g>
    <g id="xtick_3">
     <g id="line2d_3">
      <g>
       <use xlink:href="#m0396f1e46c" x="344.123792" y="379.98" style="fill: #cbd5e1; stroke: #cbd5e1; stroke-width: 0.8"/>
      </g>
     </g>
     <g id="text_3">
      <!-- 2010 -->
      <g style="fill: #cbd5e1" transform="translate(328.853792 398.598125) scale(0.12 -0.12)">
       <defs>
        <path id="DejaVuSans-31" d="M 794 531 
L 1825 531 
L 1825 4091 
L 703 3866 
L 703 4441 
L 1819 4666 
L 2450 4666 
L 2450 531 
L 3481 531 
L 3481 0 
L 794 0 
L 794 531 
z
" transform="scale(0.015625)"/>
       </defs>
       <use xlink:href="#DejaVuSans-32"/>
       <use xlink:href="#DejaVuSans-30" transform="translate(63.623047 0)"/>
       <use xlink:href="#DejaVuSans-31" transform="translate(127.246094 0)"/>
       <use xlink:href="#DejaVuSans-30" transform="translate(190.869141 0)"/>
      </g>
     </g>
    </g>
    <g id="xtick_4">
     <g id="line2d_4">
      <g>
       <use xlink:href="#m0396f1e46c" x="449.903687" y="379.98" style="fill: #cbd5e1; stroke: #cbd5e1; stroke-width: 0.8"/>
      </g>
     </g>
     <g id="text_4">
      <!-- 2012 -->
      <g style="fill: #cbd5e1" transform="translate(434.633687 398.598125) scale(0.12 -0.12)">
       <use xlink:href="#DejaVuSans-32"/>
       <use xlink:href="#DejaVuSans-30" transform="translate(63.623047 0)"/>
       <use xlink:href="#DejaVuSans-31" transform="translate(127.246094 0)"/>
       <use xlink:href="#DejaVuSans-32" transform="translate(190.869141 0)"/>
      </g>
     </g>
    </g>
    <g id="xtick_5">
     <g id="line2d_5">
      <g>
       <use xlink:href="#m0396f1e46c" x="555.828485" y="379.98" style="fill: #cbd5e1; stroke: #cbd5e1; stroke-width: 0.8"/>
      </g>
     </g>
     <g id="text_5">
      <!-- 2014 -->
      <g style="fill: #cbd5e1" transform="translate(540.558485 398.598125) scale(0.12 -0.12)">
       <defs>
        <path id="DejaVuSans-34" d="M 2419 4116 
L 825 1625 
L 2419 1625 
L 2419 4116 
z
M 2253 4666 
L 3047 4666 
L 3047 1625 
L 3713 1625 
L 3713 1100 
L 3047 1100 
L 3047 0 
L 2419 0 
L 2419 1100 
L 313 1100 
L 313 1709 
L 2253 4666 
z
" transform="scale(0.015625)"/>
       </defs>
       <use xlink:href="#DejaVuSans-32"/>
       <use xlink:href="#DejaVuSans-30" transform="translate(63.623047 0)"/>
       <use xlink:href="#DejaVuSans-31" transform="translate(127.246094 0)"/>
       <use xlink:href="#DejaVuSans-34" transform="translate(190.869141 0)"/>
      </g>
     </g>
    </g>
    <g id="xtick_6">
     <g id="line2d_6">
      <g>
       <use xlink:href="#m0396f1e46c" x="661.608379" y="379.98" style="fill: #cbd5e1; stroke: #cbd5e1; stroke-width: 0.8"/>
      </g>
     </g>
     <g id="text_6">
      <!-- 2016 -->
      <g style="fill: #cbd5e1" transform="translate(646.338379 398.598125) scale(0.12 -0.12)">
       <use xlink:href="#DejaVuSans-32"/>
       <use xlink:href="#DejaVuSans-30" transform="translate(63.623047 0)"/>
       <use xlink:href="#DejaVuSans-31" transform="translate(127.246094 0)"/>
       <use xlink:href="#DejaVuSans-36" transform="translate(190.869141 0)"/>
      </g>
     </g>
    </g>
    <g id="xtick_7">
     <g id="line2d_7">
      <g>
       <use xlink:href="#m0396f1e46c" x="767.533178" y="379.98" style="fill: #cbd5e1; stroke: #cbd5e1; stroke-width: 0.8"/>
      </g>
     </g>
     <g id="text_7">
      <!-- 2018 -->
      <g style="fill: #cbd5e1" transform="translate(752.263178 398.598125) scale(0.12 -0.12)">
       <use xlink:href="#DejaVuSans-32"/>
       <use xlink:href="#DejaVuSans-30" transform="translate(63.623047 0)"/>
       <use xlink:href="#DejaVuSans-31" transform="translate(127.246094 0)"/>
       <use xlink:href="#DejaVuSans-38" transform="translate(190.869141 0)"/>
      </g>
     </g>
    </g>
    <g id="xtick_8">
     <g id="line2d_8">
      <g>
       <use xlink:href="#m0396f1e46c" x="873.313072" y="379.98" style="fill: #cbd5e1; stroke: #cbd5e1; stroke-width: 0.8"/>
      </g>
     </g>
     <g id="text_8">
      <!-- 2020 -->
      <g style="fill: #cbd5e1" transform="translate(858.043072 398.598125) scale(0.12 -0.12)">
       <use xlink:href="#DejaVuSans-32"/>
       <use xlink:href="#DejaVuSans-30" transform="translate(63.623047 0)"/>
       <use xlink:href="#DejaVuSans-32" transform="translate(127.246094 0)"/>
       <use xlink:href="#DejaVuSans-30" transform="translate(190.869141 0)"/>
      </g>
     </g>
    </g>
    <g id="xtick_9">
     <g id="line2d_9">
      <g>
       <use xlink:href="#m0396f1e46c" x="979.23787" y="379.98" style="fill: #cbd5e1; stroke: #cbd5e1; stroke-width: 0.8"/>
      </g>
     </g>
     <g id="text_9">
      <!-- 2022 -->
      <g style="fill: #cbd5e1" transform="translate(963.96787 398.598125) scale(0.12 -0.12)">
       <use xlink:href="#DejaVuSans-32"/>
       <use xlink:href="#DejaVuSans-30" transform="translate(63.623047 0)"/>
       <use xlink:href="#DejaVuSans-32" transform="translate(127.246094 0)"/>
       <use xlink:href="#DejaVuSans-32" transform="translate(190.869141 0)"/>
      </g>
     </g>
    </g>
    <g id="xtick_10">
     <g id="line2d_10">
      <g>
       <use xlink:href="#m0396f1e46c" x="1085.017765" y="379.98" style="fill: #cbd5e1; stroke: #cbd5e1; stroke-width: 0.8"/>
      </g>
     </g>
     <g id="text_10">
      <!-- 2024 -->
      <g style="fill: #cbd5e1" transform="translate(1069.747765 398.598125) scale(0.12 -0.12)">
       <use xlink:href="#DejaVuSans-32"/>
       <use xlink:href="#DejaVuSans-30" transform="translate(63.623047 0)"/>
       <use xlink:href="#DejaVuSans-32" transform="translate(127.246094 0)"/>
       <use xlink:href="#DejaVuSans-34" transform="translate(190.869141 0)"/>
      </g>
     </g>
    </g>
    <g id="xtick_11">
     <g id="line2d_11">
      <g>
       <use xlink:href="#m0396f1e46c" x="1190.942563" y="379.98" style="fill: #cbd5e1; stroke: #cbd5e1; stroke-width: 0.8"/>
      </g>
     </g>
     <g id="text_11">
      <!-- 2026 -->
      <g style="fill: #cbd5e1" transform="translate(1175.672563 398.598125) scale(0.12 -0.12)">
       <use xlink:href="#DejaVuSans-32"/>
       <use xlink:href="#DejaVuSans-30" transform="translate(63.623047 0)"/>
       <use xlink:href="#DejaVuSans-32" transform="translate(127.246094 0)"/>
       <use xlink:href="#DejaVuSans-36" transform="translate(190.869141 0)"/>
      </g>
     </g>
    </g>
    <g id="text_12">
     <!-- Year -->
     <g style="fill: #cbd5e1" transform="translate(614.661621 414.971719) scale(0.13 -0.13)">
      <defs>
       <path id="DejaVuSans-59" d="M -13 4666 
L 666 4666 
L 1959 2747 
L 3244 4666 
L 3922 4666 
L 2272 2222 
L 2272 0 
L 1638 0 
L 1638 2222 
L -13 4666 
z
" transform="scale(0.015625)"/>
       <path id="DejaVuSans-65" d="M 3597 1894 
L 3597 1613 
L 953 1613 
Q 991 1019 1311 708 
Q 1631 397 2203 397 
Q 2534 397 2845 478 
Q 3156 559 3463 722 
L 3463 178 
Q 3153 47 2828 -22 
Q 2503 -91 2169 -91 
Q 1331 -91 842 396 
Q 353 884 353 1716 
Q 353 2575 817 3079 
Q 1281 3584 2069 3584 
Q 2775 3584 3186 3129 
Q 3597 2675 3597 1894 
z
M 3022 2063 
Q 3016 2534 2758 2815 
Q 2500 3097 2075 3097 
Q 1594 3097 1305 2825 
Q 1016 2553 972 2059 
L 3022 2063 
z
" transform="scale(0.015625)"/>
       <path id="DejaVuSans-61" d="M 2194 1759 
Q 1497 1759 1228 1600 
Q 959 1441 959 1056 
Q 959 750 1161 570 
Q 1363 391 1709 391 
Q 2188 391 2477 730 
Q 2766 1069 2766 1631 
L 2766 1759 
L 2194 1759 
z
M 3341 1997 
L 3341 0 
L 2766 0 
L 2766 531 
Q 2569 213 2275 61 
Q 1981 -91 1556 -91 
Q 1019 -91 701 211 
Q 384 513 384 1019 
Q 384 1609 779 1909 
Q 1175 2209 1959 2209 
L 2766 2209 
L 2766 2266 
Q 2766 2663 2505 2880 
Q 2244 3097 1772 3097 
Q 1472 3097 1187 3025 
Q 903 2953 641 2809 
L 641 3341 
Q 956 3463 1253 3523 
Q 1550 3584 1831 3584 
Q 2591 3584 2966 3190 
Q 3341 2797 3341 1997 
z
" transform="scale(0.015625)"/>
       <path id="DejaVuSans-72" d="M 2631 2963 
Q 2534 3019 2420 3045 
Q 2306 3072 2169 3072 
Q 1681 3072 1420 2755 
Q 1159 2438 1159 1844 
L 1159 0 
L 581 0 
L 581 3500 
L 1159 3500 
L 1159 2956 
Q 1341 3275 1631 3429 
Q 1922 3584 2338 3584 
Q 2397 3584 2469 3576 
Q 2541 3569 2628 3553 
L 2631 2963 
z
" transform="scale(0.015625)"/>
      </defs>
      <use xlink:href="#DejaVuSans-59"/>
      <use xlink:href="#DejaVuSans-65" transform="translate(47.833984 0)"/>
      <use xlink:href="#DejaVuSans-61" transform="translate(109.357422 0)"/>
      <use xlink:href="#DejaVuSans-72" transform="translate(170.636719 0)"/>
     </g>
    </g>
   </g>
   <g id="matplotlib.axis_2">
    <g id="ytick_1">
     <g id="line2d_12">
      <path d="M 63.821562 341.605588 
L 1193.02918 341.605588 
" clip-path="url(#p240094f201)" style="fill: none; stroke: #94a3b8; stroke-opacity: 0.18; stroke-width: 0.7; stroke-linecap: square"/>
     </g>
     <g id="line2d_13">
      <defs>
       <path id="m093a7303b0" d="M 0 0 
L -3.5 0 
" style="stroke: #cbd5e1; stroke-width: 0.8"/>
      </defs>
      <g>
       <use xlink:href="#m093a7303b0" x="63.821562" y="341.605588" style="fill: #cbd5e1; stroke: #cbd5e1; stroke-width: 0.8"/>
      </g>
     </g>
     <g id="text_13">
      <!-- $100 -->
      <g style="fill: #cbd5e1" transform="translate(23.781562 346.164651) scale(0.12 -0.12)">
       <defs>
        <path id="DejaVuSans-24" d="M 2163 -941 
L 1850 -941 
L 1847 0 
Q 1519 6 1191 76 
Q 863 147 531 288 
L 531 850 
Q 850 650 1176 548 
Q 1503 447 1850 444 
L 1850 1869 
Q 1159 1981 845 2250 
Q 531 2519 531 2988 
Q 531 3497 872 3790 
Q 1213 4084 1850 4128 
L 1850 4863 
L 2163 4863 
L 2163 4138 
Q 2453 4125 2725 4076 
Q 2997 4028 3256 3944 
L 3256 3397 
Q 2997 3528 2723 3600 
Q 2450 3672 2163 3684 
L 2163 2350 
Q 2872 2241 3206 1959 
Q 3541 1678 3541 1191 
Q 3541 663 3186 358 
Q 2831 53 2163 6 
L 2163 -941 
z
M 1850 2406 
L 1850 3688 
Q 1488 3647 1297 3481 
Q 1106 3316 1106 3041 
Q 1106 2772 1282 2622 
Q 1459 2472 1850 2406 
z
M 2163 1806 
L 2163 453 
Q 2559 506 2761 678 
Q 2963 850 2963 1131 
Q 2963 1406 2770 1568 
Q 2578 1731 2163 1806 
z
" transform="scale(0.015625)"/>
       </defs>
       <use xlink:href="#DejaVuSans-24"/>
       <use xlink:href="#DejaVuSans-31" transform="translate(63.623047 0)"/>
       <use xlink:href="#DejaVuSans-30" transform="translate(127.246094 0)"/>
       <use xlink:href="#DejaVuSans-30" transform="translate(190.869141 0)"/>
      </g>
     </g>
    </g>
    <g id="ytick_2">
     <g id="line2d_14">
      <path d="M 63.821562 286.785 
L 1193.02918 286.785 
" clip-path="url(#p240094f201)" style="fill: none; stroke: #94a3b8; stroke-opacity: 0.18; stroke-width: 0.7; stroke-linecap: square"/>
     </g>
     <g id="line2d_15">
      <g>
       <use xlink:href="#m093a7303b0" x="63.821562" y="286.785" style="fill: #cbd5e1; stroke: #cbd5e1; stroke-width: 0.8"/>
      </g>
     </g>
     <g id="text_14">
      <!-- $200 -->
      <g style="fill: #cbd5e1" transform="translate(23.781562 291.344062) scale(0.12 -0.12)">
       <use xlink:href="#DejaVuSans-24"/>
       <use xlink:href="#DejaVuSans-32" transform="translate(63.623047 0)"/>
       <use xlink:href="#DejaVuSans-30" transform="translate(127.246094 0)"/>
       <use xlink:href="#DejaVuSans-30" transform="translate(190.869141 0)"/>
      </g>
     </g>
    </g>
    <g id="ytick_3">
     <g id="line2d_16">
      <path d="M 63.821562 231.964412 
L 1193.02918 231.964412 
" clip-path="url(#p240094f201)" style="fill: none; stroke: #94a3b8; stroke-opacity: 0.18; stroke-width: 0.7; stroke-linecap: square"/>
     </g>
     <g id="line2d_17">
      <g>
       <use xlink:href="#m093a7303b0" x="63.821562" y="231.964412" style="fill: #cbd5e1; stroke: #cbd5e1; stroke-width: 0.8"/>
      </g>
     </g>
     <g id="text_15">
      <!-- $300 -->
      <g style="fill: #cbd5e1" transform="translate(23.781562 236.523474) scale(0.12 -0.12)">
       <defs>
        <path id="DejaVuSans-33" d="M 2597 2516 
Q 3050 2419 3304 2112 
Q 3559 1806 3559 1356 
Q 3559 666 3084 287 
Q 2609 -91 1734 -91 
Q 1441 -91 1130 -33 
Q 819 25 488 141 
L 488 750 
Q 750 597 1062 519 
Q 1375 441 1716 441 
Q 2309 441 2620 675 
Q 2931 909 2931 1356 
Q 2931 1769 2642 2001 
Q 2353 2234 1838 2234 
L 1294 2234 
L 1294 2753 
L 1863 2753 
Q 2328 2753 2575 2939 
Q 2822 3125 2822 3475 
Q 2822 3834 2567 4026 
Q 2313 4219 1838 4219 
Q 1578 4219 1281 4162 
Q 984 4106 628 3988 
L 628 4550 
Q 988 4650 1302 4700 
Q 1616 4750 1894 4750 
Q 2613 4750 3031 4423 
Q 3450 4097 3450 3541 
Q 3450 3153 3228 2886 
Q 3006 2619 2597 2516 
z
" transform="scale(0.015625)"/>
       </defs>
       <use xlink:href="#DejaVuSans-24"/>
       <use xlink:href="#DejaVuSans-33" transform="translate(63.623047 0)"/>
       <use xlink:href="#DejaVuSans-30" transform="translate(127.246094 0)"/>
       <use xlink:href="#DejaVuSans-30" transform="translate(190.869141 0)"/>
      </g>
     </g>
    </g>
    <g id="ytick_4">
     <g id="line2d_18">
      <path d="M 63.821562 177.143824 
L 1193.02918 177.143824 
" clip-path="url(#p240094f201)" style="fill: none; stroke: #94a3b8; stroke-opacity: 0.18; stroke-width: 0.7; stroke-linecap: square"/>
     </g>
     <g id="line2d_19">
      <g>
       <use xlink:href="#m093a7303b0" x="63.821562" y="177.143824" style="fill: #cbd5e1; stroke: #cbd5e1; stroke-width: 0.8"/>
      </g>
     </g>
     <g id="text_16">
      <!-- $400 -->
      <g style="fill: #cbd5e1" transform="translate(23.781562 181.702886) scale(0.12 -0.12)">
       <use xlink:href="#DejaVuSans-24"/>
       <use xlink:href="#DejaVuSans-34" transform="translate(63.623047 0)"/>
       <use xlink:href="#DejaVuSans-30" transform="translate(127.246094 0)"/>
       <use xlink:href="#DejaVuSans-30" transform="translate(190.869141 0)"/>
      </g>
     </g>
    </g>
    <g id="ytick_5">
     <g id="line2d_20">
      <path d="M 63.821562 122.323235 
L 1193.02918 122.323235 
" clip-path="url(#p240094f201)" style="fill: none; stroke: #94a3b8; stroke-opacity: 0.18; stroke-width: 0.7; stroke-linecap: square"/>
     </g>
     <g id="line2d_21">
      <g>
       <use xlink:href="#m093a7303b0" x="63.821562" y="122.323235" style="fill: #cbd5e1; stroke: #cbd5e1; stroke-width: 0.8"/>
      </g>
     </g>
     <g id="text_17">
      <!-- $500 -->
      <g style="fill: #cbd5e1" transform="translate(23.781562 126.882298) scale(0.12 -0.12)">
       <defs>
        <path id="DejaVuSans-35" d="M 691 4666 
L 3169 4666 
L 3169 4134 
L 1269 4134 
L 1269 2991 
Q 1406 3038 1543 3061 
Q 1681 3084 1819 3084 
Q 2600 3084 3056 2656 
Q 3513 2228 3513 1497 
Q 3513 744 3044 326 
Q 2575 -91 1722 -91 
Q 1428 -91 1123 -41 
Q 819 9 494 109 
L 494 744 
Q 775 591 1075 516 
Q 1375 441 1709 441 
Q 2250 441 2565 725 
Q 2881 1009 2881 1497 
Q 2881 1984 2565 2268 
Q 2250 2553 1709 2553 
Q 1456 2553 1204 2497 
Q 953 2441 691 2322 
L 691 4666 
z
" transform="scale(0.015625)"/>
       </defs>
       <use xlink:href="#DejaVuSans-24"/>
       <use xlink:href="#DejaVuSans-35" transform="translate(63.623047 0)"/>
       <use xlink:href="#DejaVuSans-30" transform="translate(127.246094 0)"/>
       <use xlink:href="#DejaVuSans-30" transform="translate(190.869141 0)"/>
      </g>
     </g>
    </g>
    <g id="ytick_6">
     <g id="line2d_22">
      <path d="M 63.821562 67.502647 
L 1193.02918 67.502647 
" clip-path="url(#p240094f201)" style="fill: none; stroke: #94a3b8; stroke-opacity: 0.18; stroke-width: 0.7; stroke-linecap: square"/>
     </g>
     <g id="line2d_23">
      <g>
       <use xlink:href="#m093a7303b0" x="63.821562" y="67.502647" style="fill: #cbd5e1; stroke: #cbd5e1; stroke-width: 0.8"/>
      </g>
     </g>
     <g id="text_18">
      <!-- $600 -->
      <g style="fill: #cbd5e1" transform="translate(23.781562 72.06171) scale(0.12 -0.12)">
       <use xlink:href="#DejaVuSans-24"/>
       <use xlink:href="#DejaVuSans-36" transform="translate(63.623047 0)"/>
       <use xlink:href="#DejaVuSans-30" transform="translate(127.246094 0)"/>
       <use xlink:href="#DejaVuSans-30" transform="translate(190.869141 0)"/>
      </g>
     </g>
    </g>
    <g id="ytick_7">
     <g id="line2d_24">
      <path d="M 63.821562 12.682059 
L 1193.02918 12.682059 
" clip-path="url(#p240094f201)" style="fill: none; stroke: #94a3b8; stroke-opacity: 0.18; stroke-width: 0.7; stroke-linecap: square"/>
     </g>
     <g id="line2d_25">
      <g>
       <use xlink:href="#m093a7303b0" x="63.821562" y="12.682059" style="fill: #cbd5e1; stroke: #cbd5e1; stroke-width: 0.8"/>
      </g>
     </g>
     <g id="text_19">
      <!-- $700 -->
      <g style="fill: #cbd5e1" transform="translate(23.781562 17.241121) scale(0.12 -0.12)">
       <defs>
        <path id="DejaVuSans-37" d="M 525 4666 
L 3525 4666 
L 3525 4397 
L 1831 0 
L 1172 0 
L 2766 4134 
L 525 4134 
L 525 4666 
z
" transform="scale(0.015625)"/>
       </defs>
       <use xlink:href="#DejaVuSans-24"/>
       <use xlink:href="#DejaVuSans-37" transform="translate(63.623047 0)"/>
       <use xlink:href="#DejaVuSans-30" transform="translate(127.246094 0)"/>
       <use xlink:href="#DejaVuSans-30" transform="translate(190.869141 0)"/>
      </g>
     </g>
    </g>
    <g id="text_20">
     <!-- Price (USD) -->
     <g style="fill: #cbd5e1" transform="translate(17.077969 230.473437) rotate(-90) scale(0.13 -0.13)">
      <defs>
       <path id="DejaVuSans-50" d="M 1259 4147 
L 1259 2394 
L 2053 2394 
Q 2494 2394 2734 2622 
Q 2975 2850 2975 3272 
Q 2975 3691 2734 3919 
Q 2494 4147 2053 4147 
L 1259 4147 
z
M 628 4666 
L 2053 4666 
Q 2838 4666 3239 4311 
Q 3641 3956 3641 3272 
Q 3641 2581 3239 2228 
Q 2838 1875 2053 1875 
L 1259 1875 
L 1259 0 
L 628 0 
L 628 4666 
z
" transform="scale(0.015625)"/>
       <path id="DejaVuSans-69" d="M 603 3500 
L 1178 3500 
L 1178 0 
L 603 0 
L 603 3500 
z
M 603 4863 
L 1178 4863 
L 1178 4134 
L 603 4134 
L 603 4863 
z
" transform="scale(0.015625)"/>
       <path id="DejaVuSans-63" d="M 3122 3366 
L 3122 2828 
Q 2878 2963 2633 3030 
Q 2388 3097 2138 3097 
Q 1578 3097 1268 2742 
Q 959 2388 959 1747 
Q 959 1106 1268 751 
Q 1578 397 2138 397 
Q 2388 397 2633 464 
Q 2878 531 3122 666 
L 3122 134 
Q 2881 22 2623 -34 
Q 2366 -91 2075 -91 
Q 1284 -91 818 406 
Q 353 903 353 1747 
Q 353 2603 823 3093 
Q 1294 3584 2113 3584 
Q 2378 3584 2631 3529 
Q 2884 3475 3122 3366 
z
" transform="scale(0.015625)"/>
       <path id="DejaVuSans-20" transform="scale(0.015625)"/>
       <path id="DejaVuSans-28" d="M 1984 4856 
Q 1566 4138 1362 3434 
Q 1159 2731 1159 2009 
Q 1159 1288 1364 580 
Q 1569 -128 1984 -844 
L 1484 -844 
Q 1016 -109 783 600 
Q 550 1309 550 2009 
Q 550 2706 781 3412 
Q 1013 4119 1484 4856 
L 1984 4856 
z
" transform="scale(0.015625)"/>
       <path id="DejaVuSans-55" d="M 556 4666 
L 1191 4666 
L 1191 1831 
Q 1191 1081 1462 751 
Q 1734 422 2344 422 
Q 2950 422 3222 751 
Q 3494 1081 3494 1831 
L 3494 4666 
L 4128 4666 
L 4128 1753 
Q 4128 841 3676 375 
Q 3225 -91 2344 -91 
Q 1459 -91 1007 375 
Q 556 841 556 1753 
L 556 4666 
z
" transform="scale(0.015625)"/>
       <path id="DejaVuSans-53" d="M 3425 4513 
L 3425 3897 
Q 3066 4069 2747 4153 
Q 2428 4238 2131 4238 
Q 1616 4238 1336 4038 
Q 1056 3838 1056 3469 
Q 1056 3159 1242 3001 
Q 1428 2844 1947 2747 
L 2328 2669 
Q 3034 2534 3370 2195 
Q 3706 1856 3706 1288 
Q 3706 609 3251 259 
Q 2797 -91 1919 -91 
Q 1588 -91 1214 -16 
Q 841 59 441 206 
L 441 856 
Q 825 641 1194 531 
Q 1563 422 1919 422 
Q 2459 422 2753 634 
Q 3047 847 3047 1241 
Q 3047 1584 2836 1778 
Q 2625 1972 2144 2069 
L 1759 2144 
Q 1053 2284 737 2584 
Q 422 2884 422 3419 
Q 422 4038 858 4394 
Q 1294 4750 2059 4750 
Q 2388 4750 2728 4690 
Q 3069 4631 3425 4513 
z
" transform="scale(0.015625)"/>
       <path id="DejaVuSans-44" d="M 1259 4147 
L 1259 519 
L 2022 519 
Q 2988 519 3436 956 
Q 3884 1394 3884 2338 
Q 3884 3275 3436 3711 
Q 2988 4147 2022 4147 
L 1259 4147 
z
M 628 4666 
L 1925 4666 
Q 3281 4666 3915 4102 
Q 4550 3538 4550 2338 
Q 4550 1131 3912 565 
Q 3275 0 1925 0 
L 628 0 
L 628 4666 
z
" transform="scale(0.015625)"/>
       <path id="DejaVuSans-29" d="M 513 4856 
L 1013 4856 
Q 1481 4119 1714 3412 
Q 1947 2706 1947 2009 
Q 1947 1309 1714 600 
Q 1481 -109 1013 -844 
L 513 -844 
Q 928 -128 1133 580 
Q 1338 1288 1338 2009 
Q 1338 2731 1133 3434 
Q 928 4138 513 4856 
z
" transform="scale(0.015625)"/>
      </defs>
      <use xlink:href="#DejaVuSans-50"/>
      <use xlink:href="#DejaVuSans-72" transform="translate(58.552734 0)"/>
      <use xlink:href="#DejaVuSans-69" transform="translate(99.666016 0)"/>
      <use xlink:href="#DejaVuSans-63" transform="translate(127.449219 0)"/>
      <use xlink:href="#DejaVuSans-65" transform="translate(182.429688 0)"/>
      <use xlink:href="#DejaVuSans-20" transform="translate(243.953125 0)"/>
      <use xlink:href="#DejaVuSans-28" transform="translate(275.740234 0)"/>
      <use xlink:href="#DejaVuSans-55" transform="translate(314.753906 0)"/>
      <use xlink:href="#DejaVuSans-53" transform="translate(387.947266 0)"/>
      <use xlink:href="#DejaVuSans-44" transform="translate(451.423828 0)"/>
      <use xlink:href="#DejaVuSans-29" transform="translate(528.425781 0)"/>
     </g>
    </g>
   </g>
   <g id="line2d_26">
    <path d="M 74.892225 371.691128 
L 79.384248 372.414759 
L 83.876271 373.280923 
L 87.933582 372.562775 
L 92.425605 372.952001 
L 96.772724 372.661452 
L 101.264747 373.593401 
L 105.611866 372.612114 
L 110.103889 372.952001 
L 114.595912 372.63404 
L 118.943031 370.824961 
L 123.435054 370.989423 
L 127.782173 369.509268 
L 132.274196 368.149716 
L 136.766218 365.342903 
L 140.823529 365.688273 
L 145.315552 364.575416 
L 149.662671 360.743458 
L 154.154694 361.214911 
L 158.501813 362.859531 
L 162.993836 361.801493 
L 167.485859 362.278432 
L 171.832978 363.824372 
L 176.325001 363.402253 
L 180.67212 361.1272 
L 185.164143 361.774083 
L 193.713477 359.981448 
L 198.2055 360.387123 
L 202.552619 359.647046 
L 207.044641 360.496762 
L 211.39176 361.192986 
L 215.883783 360.359711 
L 220.375806 359.959523 
L 224.722925 356.127561 
L 229.214948 353.326228 
L 233.562067 354.038898 
L 238.05409 351.22112 
L 242.546113 346.320158 
L 246.748328 343.699735 
L 251.240351 346.862881 
L 255.58747 348.924136 
L 260.079493 348.485574 
L 264.426612 346.320158 
L 268.918634 347.04379 
L 273.410657 351.632274 
L 277.757776 349.790302 
L 282.249799 357.317171 
L 286.596918 352.399763 
L 291.088941 348.995405 
L 295.580964 346.369499 
L 299.638275 345.645867 
L 304.130298 346.93415 
L 308.477417 348.584251 
L 312.96944 343.688772 
L 317.316559 346.440764 
L 321.808582 345.251158 
L 326.300605 345.223746 
L 330.647723 342.236026 
L 335.139746 340.218628 
L 339.486865 333.031649 
L 343.978888 337.598205 
L 348.470911 338.338282 
L 352.528222 336.436007 
L 357.020245 336.699147 
L 361.367364 333.185146 
L 365.859387 331.255463 
L 370.206506 329.720485 
L 374.698529 333.11388 
L 379.190552 329.501201 
L 383.537671 326.30516 
L 388.029694 323.723115 
L 392.376813 322.188137 
L 396.868835 320.379056 
L 401.360858 325.230681 
L 405.418169 320.960153 
L 409.910192 319.754101 
L 414.257311 312.896049 
L 418.749334 314.392649 
L 423.096453 316.388118 
L 427.588476 309.650671 
L 432.080499 298.999026 
L 436.427618 309.776756 
L 440.919641 304.689406 
L 445.26676 303.159907 
L 449.758783 313.104361 
L 454.250806 303.60944 
L 458.453021 306.361436 
L 462.945043 307.551042 
L 467.292162 307.682606 
L 471.784185 313.307203 
L 476.131304 311.350104 
L 480.623327 310.637435 
L 489.462469 302.195068 
L 493.954492 304.968988 
L 498.301611 305.396588 
L 502.793634 307.605857 
L 507.285657 308.05539 
L 511.342968 312.550676 
L 515.834991 311.75578 
L 520.18211 318.15882 
L 524.674133 323.010446 
L 529.021251 331.129373 
L 533.513274 326.277752 
L 538.005297 322.626703 
L 542.352416 326.15715 
L 546.844439 326.398358 
L 551.191558 330.257728 
L 555.683581 332.768508 
L 560.175604 330.592134 
L 564.232915 326.46414 
L 568.724938 328.662447 
L 573.072057 328.328041 
L 577.56408 330.405742 
L 581.911199 326.233899 
L 586.403222 328.783053 
L 590.895244 328.525396 
L 595.242363 332.719171 
L 599.734386 334.6653 
L 604.081505 334.966815 
L 608.573528 334.160951 
L 613.065551 328.750162 
L 617.122862 332.746579 
L 621.614885 334.117094 
L 625.962004 334.221254 
L 630.454027 333.875886 
L 634.801146 334.82428 
L 639.293169 338.902933 
L 643.785192 336.770413 
L 648.132311 337.844896 
L 652.624334 336.507272 
L 656.971452 340.553034 
L 661.463475 340.805208 
L 665.955498 337.795559 
L 670.157713 331.387031 
L 674.649736 331.935237 
L 678.996855 328.640518 
L 683.488878 332.801403 
L 687.835997 327.094578 
L 692.32802 325.718584 
L 696.820043 328.021047 
L 701.167162 327.54959 
L 705.659185 329.57795 
L 710.006304 335.164169 
L 714.498327 336.337329 
L 718.990349 333.080985 
L 723.04766 331.063587 
L 727.539683 331.343173 
L 731.886802 330.219354 
L 736.378825 330.301581 
L 740.725944 331.72692 
L 745.217967 330.230316 
L 749.70999 327.450913 
L 754.057109 329.775304 
L 758.549132 330.274174 
L 762.896251 330.038445 
L 767.388274 328.640518 
L 771.880297 326.447695 
L 775.937608 327.900441 
L 780.429631 327.467358 
L 784.77675 328.125208 
L 789.268772 328.942033 
L 793.615891 331.381548 
L 802.599937 334.199326 
L 806.947056 334.61048 
L 811.439079 333.300268 
L 815.786198 333.086468 
L 820.278221 329.956213 
L 824.770244 328.037493 
L 828.827555 328.45413 
L 833.319578 329.539576 
L 837.666697 329.983625 
L 842.15872 328.815944 
L 846.505839 323.405155 
L 850.997862 323.399667 
L 855.489884 317.621581 
L 859.837003 320.296828 
L 864.329026 318.345217 
L 868.676145 320.850513 
L 873.168168 318.087559 
L 877.660191 314.562591 
L 881.862406 315.083385 
L 886.354429 315.264294 
L 890.701548 309.371081 
L 895.193571 307.117954 
L 899.54069 304.672961 
L 904.032713 294.772364 
L 908.524736 295.101282 
L 912.871855 299.327953 
L 917.363877 299.832302 
L 921.710996 305.056703 
L 926.203019 298.648175 
L 930.695042 301.800359 
L 934.752353 307.720984 
L 939.244376 308.73516 
L 943.591495 305.610388 
L 948.083518 298.637208 
L 952.430637 305.626833 
L 956.92266 303.32985 
L 961.414683 303.401119 
L 965.761802 306.399806 
L 970.253825 305.06767 
L 974.600944 305.698103 
L 979.092966 302.704895 
L 983.584989 304.278252 
L 987.6423 298.637208 
L 992.134323 297.392787 
L 996.481442 299.443072 
L 1000.973465 302.606222 
L 1005.320584 304.07541 
L 1009.812607 306.465588 
L 1018.651749 311.635174 
L 1023.143772 313.148219 
L 1027.490891 306.076366 
L 1031.982914 303.428531 
L 1036.474937 298.072557 
L 1040.532248 303.351782 
L 1045.024271 295.983894 
L 1049.371389 295.117728 
L 1053.863412 296.477276 
L 1058.210531 298.697511 
L 1062.702554 296.46083 
L 1067.194577 297.738151 
L 1071.541696 302.43628 
L 1076.033719 295.506958 
L 1080.380838 292.952316 
L 1084.872861 291.625659 
L 1089.364884 293.11678 
L 1093.567099 292.645322 
L 1098.059122 283.649262 
L 1102.406241 280.277799 
L 1106.898264 278.397448 
L 1111.245383 278.556433 
L 1115.737405 272.230132 
L 1120.229428 269.631642 
L 1124.576547 263.179256 
L 1129.06857 257.450506 
L 1133.415689 261.792296 
L 1137.907712 263.689083 
L 1142.399735 254.682065 
L 1146.457046 252.10002 
L 1150.949069 238.466125 
L 1155.296188 229.897682 
L 1159.788211 229.990867 
L 1164.13533 229.316585 
L 1168.627353 230.341727 
L 1173.119376 222.058327 
L 1177.466494 201.555431 
L 1181.958517 201.390976 
L 1181.958517 201.390976 
" clip-path="url(#p240094f201)" style="fill: none; stroke: #f59e0b; stroke-width: 2.6; stroke-linecap: square"/>
   </g>
   <g id="line2d_27">
    <path d="M 74.892225 352.662699 
L 79.384248 351.344507 
L 83.876271 352.355266 
L 87.933582 351.434029 
L 96.772724 353.084552 
L 101.264747 351.68791 
L 105.611866 351.620116 
L 110.103889 349.905776 
L 114.595912 350.341867 
L 118.943031 349.972031 
L 123.435054 351.070726 
L 127.782173 349.077236 
L 132.274196 349.167836 
L 136.766218 348.032967 
L 140.823529 347.755907 
L 145.315552 346.952653 
L 149.662671 346.32772 
L 154.154694 347.836721 
L 162.993836 347.491817 
L 167.485859 346.423946 
L 171.832978 345.073809 
L 176.325001 343.455331 
L 180.67212 342.402033 
L 189.656166 340.856239 
L 193.713477 341.946406 
L 198.2055 341.315019 
L 202.552619 338.873827 
L 207.044641 336.921651 
L 211.39176 337.791665 
L 215.883783 339.627506 
L 220.375806 338.8986 
L 224.722925 336.671468 
L 229.214948 335.86082 
L 233.562067 338.206667 
L 238.05409 338.862258 
L 242.546113 342.342625 
L 246.748328 343.7403 
L 251.240351 344.211432 
L 255.58747 341.722752 
L 260.079493 340.895834 
L 264.426612 345.536826 
L 268.918634 345.994092 
L 273.410657 345.214741 
L 277.757776 350.037487 
L 282.249799 357.700298 
L 286.596918 360.395864 
L 291.088941 360.042888 
L 295.580964 363.030479 
L 299.638275 366.61882 
L 304.130298 364.135544 
L 308.477417 360.927595 
L 312.96944 358.852596 
L 317.316559 358.877185 
L 321.808582 356.07584 
L 330.647723 353.10173 
L 335.139746 353.934675 
L 339.486865 351.316907 
L 343.978888 350.455262 
L 348.470911 352.125957 
L 352.528222 350.74402 
L 357.020245 347.96291 
L 361.367364 347.213172 
L 365.859387 351.123388 
L 370.206506 353.467391 
L 374.698529 350.533278 
L 379.190552 352.597574 
L 383.537671 348.672497 
L 388.029694 346.848217 
L 392.376813 346.848217 
L 396.868835 343.533828 
L 401.360858 342.301419 
L 405.418169 340.421277 
L 409.910192 340.41456 
L 414.257311 338.792357 
L 418.749334 339.438717 
L 423.096453 340.400089 
L 427.588476 341.520847 
L 432.080499 344.5393 
L 436.427618 348.141318 
L 440.919641 342.871194 
L 445.26676 343.088796 
L 449.758783 342.531539 
L 458.453021 337.584369 
L 462.945043 335.691801 
L 467.292162 336.097251 
L 471.784185 339.720332 
L 476.131304 337.419136 
L 480.623327 336.721114 
L 489.462469 333.673843 
L 493.954492 334.815861 
L 498.301611 334.467159 
L 502.793634 333.913587 
L 507.285657 330.713543 
L 511.342968 329.875132 
L 515.834991 327.348099 
L 520.18211 326.020961 
L 524.674133 324.35871 
L 529.021251 325.320429 
L 533.513274 321.645878 
L 538.005297 323.888708 
L 542.352416 321.593171 
L 546.844439 318.127895 
L 551.191558 315.807297 
L 555.683581 313.717145 
L 560.175604 316.632517 
L 564.232915 313.000661 
L 573.072057 311.723851 
L 581.911199 307.968955 
L 586.403222 309.157599 
L 590.895244 305.713687 
L 595.242363 306.965185 
L 599.734386 304.858253 
L 604.081505 302.342759 
L 608.573528 302.581387 
L 613.065551 305.36194 
L 617.122862 300.243715 
L 621.614885 301.754318 
L 625.962004 300.823315 
L 630.454027 299.594243 
L 634.801146 301.561096 
L 639.293169 299.418161 
L 643.785192 305.330831 
L 648.132311 307.655235 
L 652.624334 300.104355 
L 656.971452 299.752299 
L 661.463475 301.423049 
L 665.955498 306.152948 
L 670.157713 306.227521 
L 674.649736 300.160233 
L 678.996855 299.780799 
L 683.488878 298.136716 
L 687.835997 297.795075 
L 692.32802 294.197875 
L 696.820043 294.075446 
L 701.167162 294.069532 
L 705.659185 295.844065 
L 710.006304 292.138782 
L 714.498327 290.024698 
L 718.990349 288.120666 
L 723.04766 283.86517 
L 727.539683 283.724479 
L 731.886802 282.6058 
L 736.378825 280.999461 
L 740.725944 280.263604 
L 745.217967 277.875985 
L 749.70999 277.530103 
L 754.057109 275.134395 
L 758.549132 272.276282 
L 762.896251 268.481544 
L 767.388274 266.929844 
L 771.880297 259.631477 
L 775.937608 264.605431 
L 780.429631 268.218717 
L 784.77675 267.556078 
L 789.268772 264.423418 
L 793.615891 263.664223 
L 798.107914 258.745887 
L 802.599937 254.351147 
L 806.947056 253.50647 
L 811.439079 263.382801 
L 815.786198 260.914954 
L 820.278221 272.846521 
L 824.770244 262.952005 
L 828.827555 258.625356 
L 833.319578 256.131093 
L 837.666697 250.399692 
L 842.15872 259.711964 
L 846.505839 250.198514 
L 850.997862 247.987639 
L 855.489884 250.472985 
L 859.837003 247.633099 
L 864.329026 244.344014 
L 868.676145 238.838918 
L 873.168168 234.260158 
L 877.660191 234.325605 
L 881.862406 247.158438 
L 886.354429 265.797705 
L 890.701548 249.210061 
L 895.193571 242.19591 
L 899.54069 239.460719 
L 904.032713 230.216688 
L 908.524736 218.615779 
L 912.871855 225.273683 
L 917.363877 229.5411 
L 921.710996 211.38787 
L 926.203019 204.532519 
L 930.695042 206.487979 
L 934.752353 201.206646 
L 939.244376 192.343839 
L 943.591495 181.545749 
L 948.083518 180.134831 
L 952.430637 175.283925 
L 956.92266 169.885315 
L 961.414683 163.143494 
L 965.761802 174.015764 
L 970.253825 158.410617 
L 974.600944 160.323048 
L 979.092966 149.40385 
L 983.584989 162.432088 
L 987.6423 169.338883 
L 992.134323 160.802611 
L 996.481442 181.483028 
L 1000.973465 180.997878 
L 1005.320584 198.762187 
L 1009.812607 180.559805 
L 1014.30463 189.367553 
L 1018.651749 208.509304 
L 1023.143772 193.236229 
L 1027.490891 181.940625 
L 1031.982914 194.301055 
L 1036.474937 181.589899 
L 1040.532248 186.99147 
L 1045.024271 179.226113 
L 1049.371389 175.756345 
L 1053.863412 174.737677 
L 1058.210531 160.3723 
L 1062.702554 152.645488 
L 1067.194577 156.607434 
L 1071.541696 167.983124 
L 1076.033719 172.942306 
L 1080.380838 152.528429 
L 1084.872861 141.393164 
L 1089.364884 137.331409 
L 1093.567099 123.810073 
L 1098.059122 114.894985 
L 1102.406241 126.246217 
L 1106.898264 112.580602 
L 1111.245383 102.56651 
L 1115.737405 99.008157 
L 1120.229428 92.058751 
L 1124.576547 85.665647 
L 1129.06857 88.438731 
L 1133.415689 70.072396 
L 1137.907712 77.924515 
L 1142.399735 69.370709 
L 1146.457046 73.522606 
L 1150.949069 91.514526 
L 1155.296188 94.158154 
L 1159.788211 75.162138 
L 1164.13533 58.653626 
L 1168.627353 50.874215 
L 1173.119376 43.783642 
L 1177.466494 31.222386 
L 1181.958517 29.917653 
L 1181.958517 29.917653 
" clip-path="url(#p240094f201)" style="fill: none; stroke: #6559f9; stroke-width: 2.6; stroke-linecap: square"/>
   </g>
   <g id="patch_3">
    <path d="M 63.821562 379.98 
L 63.821562 7.2 
" style="fill: none; stroke: #64748b; stroke-width: 1.2; stroke-linejoin: miter; stroke-linecap: square"/>
   </g>
   <g id="patch_4">
    <path d="M 63.821563 379.98 
L 1193.02918 379.98 
" style="fill: none; stroke: #64748b; stroke-width: 1.2; stroke-linejoin: miter; stroke-linecap: square"/>
   </g>
   <g id="text_21">
    <path d="M 1192.394443 204.273319 
Q 1191.480381 204.718163 1190.497256 204.941601 
Q 1189.514131 205.163007 1188.466006 205.163007 
Q 1186.097568 205.163007 1184.714287 203.838632 
Q 1183.331006 202.514257 1183.331006 200.249413 
Q 1183.331006 197.958163 1184.738662 196.643944 
Q 1186.14835 195.329726 1188.600068 195.329726 
Q 1189.5446 195.329726 1190.409912 195.508476 
Q 1191.277256 195.685194 1192.045068 196.034569 
L 1192.045068 197.994726 
Q 1191.252881 197.545819 1190.468818 197.324413 
Q 1189.684756 197.100976 1188.896631 197.100976 
Q 1187.438193 197.100976 1186.648037 197.917538 
Q 1185.857881 198.732069 1185.857881 200.249413 
Q 1185.857881 201.752538 1186.6196 202.573163 
Q 1187.381318 203.391757 1188.782881 203.391757 
Q 1189.164756 203.391757 1189.491787 203.345038 
Q 1189.818818 203.296288 1190.078818 203.194726 
L 1190.078818 201.354413 
L 1188.58585 201.354413 
L 1188.58585 199.715194 
L 1192.394443 199.715194 
L 1192.394443 204.273319 
z
M 1194.547822 195.500351 
L 1196.991416 195.500351 
L 1196.991416 203.131757 
L 1201.281416 203.131757 
L 1201.281416 204.978163 
L 1194.547822 204.978163 
L 1194.547822 195.500351 
z
M 1205.275108 197.348788 
L 1205.275108 203.131757 
L 1206.150576 203.131757 
Q 1207.647608 203.131757 1208.437764 202.388319 
Q 1209.229951 201.644882 1209.229951 200.229101 
Q 1209.229951 198.821444 1208.441826 198.086132 
Q 1207.655733 197.348788 1206.150576 197.348788 
L 1205.275108 197.348788 
z
M 1202.831514 195.500351 
L 1205.407139 195.500351 
Q 1207.566358 195.500351 1208.622608 195.809101 
Q 1209.678858 196.115819 1210.434483 196.853163 
Q 1211.100733 197.495038 1211.423701 198.333944 
Q 1211.748701 199.170819 1211.748701 200.229101 
Q 1211.748701 201.303632 1211.423701 202.144569 
Q 1211.100733 202.985507 1210.434483 203.625351 
Q 1209.672764 204.362694 1208.606358 204.671444 
Q 1207.539951 204.978163 1205.407139 204.978163 
L 1202.831514 204.978163 
L 1202.831514 195.500351 
z
M 1226.525537 206.889569 
L 1225.497725 206.889569 
L 1225.491631 204.978163 
Q 1224.697412 204.945663 1223.953975 204.801444 
Q 1223.212568 204.655194 1222.507725 204.393163 
L 1222.507725 202.731601 
Q 1223.238975 203.105351 1223.984443 203.306444 
Q 1224.729912 203.505507 1225.497725 203.529882 
L 1225.497725 201.557538 
L 1225.288506 201.518944 
Q 1223.771162 201.252851 1223.13335 200.682069 
Q 1222.495537 200.109257 1222.495537 199.036757 
Q 1222.495537 197.901288 1223.273506 197.263476 
Q 1224.051475 196.623632 1225.491631 196.566757 
L 1225.497725 195.100194 
L 1226.525537 195.100194 
L 1226.525537 196.542382 
Q 1227.161318 196.593163 1227.795068 196.700819 
Q 1228.43085 196.808476 1229.072725 196.979101 
L 1229.072725 198.591913 
Q 1228.436943 198.325819 1227.801162 198.177538 
Q 1227.167412 198.027226 1226.525537 197.994726 
L 1226.525537 199.816757 
L 1226.728662 199.855351 
Q 1228.341475 200.109257 1228.991475 200.702382 
Q 1229.643506 201.295507 1229.643506 202.457382 
Q 1229.643506 203.625351 1228.867568 204.250976 
Q 1228.093662 204.876601 1226.525537 204.965976 
L 1226.525537 206.889569 
z
M 1225.497725 199.670507 
L 1225.497725 198.015038 
Q 1225.046787 198.039413 1224.776631 198.258788 
Q 1224.508506 198.478163 1224.508506 198.815351 
Q 1224.508506 199.189101 1224.754287 199.402382 
Q 1225.0021 199.613632 1225.497725 199.670507 
z
M 1226.525537 201.740351 
L 1226.525537 203.505507 
Q 1227.078037 203.499413 1227.354287 203.290194 
Q 1227.630537 203.080976 1227.630537 202.660507 
Q 1227.630537 202.229882 1227.376631 202.016601 
Q 1227.122725 201.803319 1226.525537 201.740351 
z
M 1236.580479 199.867538 
Q 1237.539229 200.115351 1238.036885 200.728788 
Q 1238.536572 201.340194 1238.536572 202.286757 
Q 1238.536572 203.696444 1237.455947 204.429726 
Q 1236.377354 205.163007 1234.309541 205.163007 
Q 1233.578291 205.163007 1232.84501 205.045194 
Q 1232.111729 204.927382 1231.394697 204.691757 
L 1231.394697 202.806757 
Q 1232.08126 203.150038 1232.755635 203.324726 
Q 1233.432041 203.499413 1234.086104 203.499413 
Q 1235.057041 203.499413 1235.57501 203.164257 
Q 1236.092979 202.827069 1236.092979 202.197382 
Q 1236.092979 201.549413 1235.562822 201.216288 
Q 1235.032666 200.883163 1233.996729 200.883163 
L 1233.019697 200.883163 
L 1233.019697 199.308944 
L 1234.04751 199.308944 
Q 1234.969697 199.308944 1235.418604 199.020507 
Q 1235.869541 198.732069 1235.869541 198.140976 
Q 1235.869541 197.596601 1235.430791 197.298007 
Q 1234.994072 196.999413 1234.19376 196.999413 
Q 1233.604697 196.999413 1233.001416 197.133476 
Q 1232.398135 197.265507 1231.800947 197.525507 
L 1231.800947 195.735976 
Q 1232.524072 195.532851 1233.23501 195.431288 
Q 1233.945947 195.329726 1234.63251 195.329726 
Q 1236.478916 195.329726 1237.39501 195.937069 
Q 1238.313135 196.542382 1238.313135 197.761132 
Q 1238.313135 198.591913 1237.874385 199.122069 
Q 1237.437666 199.652226 1236.580479 199.867538 
z
M 1240.94792 195.500351 
L 1247.023389 195.500351 
L 1247.023389 197.298007 
L 1242.89792 197.298007 
L 1242.89792 198.764569 
Q 1243.176201 198.687382 1243.458545 198.646757 
Q 1243.740889 198.604101 1244.045576 198.604101 
Q 1245.778233 198.604101 1246.743076 199.471444 
Q 1247.70792 200.338788 1247.70792 201.886601 
Q 1247.70792 203.422226 1246.657764 204.293632 
Q 1245.607608 205.163007 1243.740889 205.163007 
Q 1242.934483 205.163007 1242.144326 205.006601 
Q 1241.35417 204.850194 1240.57417 204.533319 
L 1240.57417 202.609726 
Q 1241.348076 203.054569 1242.042764 203.278007 
Q 1242.737451 203.499413 1243.354951 203.499413 
Q 1244.242608 203.499413 1244.752451 203.064726 
Q 1245.264326 202.630038 1245.264326 201.886601 
Q 1245.264326 201.137069 1244.752451 200.706444 
Q 1244.242608 200.273788 1243.354951 200.273788 
Q 1242.826826 200.273788 1242.229639 200.411913 
Q 1241.634483 200.548007 1240.94792 200.832382 
L 1240.94792 195.500351 
z
M 1249.99333 195.500351 
L 1256.068799 195.500351 
L 1256.068799 197.298007 
L 1251.94333 197.298007 
L 1251.94333 198.764569 
Q 1252.221611 198.687382 1252.503955 198.646757 
Q 1252.786299 198.604101 1253.090986 198.604101 
Q 1254.823643 198.604101 1255.788486 199.471444 
Q 1256.75333 200.338788 1256.75333 201.886601 
Q 1256.75333 203.422226 1255.703174 204.293632 
Q 1254.653018 205.163007 1252.786299 205.163007 
Q 1251.979893 205.163007 1251.189736 205.006601 
Q 1250.39958 204.850194 1249.61958 204.533319 
L 1249.61958 202.609726 
Q 1250.393486 203.054569 1251.088174 203.278007 
Q 1251.782861 203.499413 1252.400361 203.499413 
Q 1253.288018 203.499413 1253.797861 203.064726 
Q 1254.309736 202.630038 1254.309736 201.886601 
Q 1254.309736 201.137069 1253.797861 200.706444 
Q 1253.288018 200.273788 1252.400361 200.273788 
Q 1251.872236 200.273788 1251.275049 200.411913 
Q 1250.679893 200.548007 1249.99333 200.832382 
L 1249.99333 195.500351 
z
M 1258.987959 202.522382 
L 1261.273115 202.522382 
L 1261.273115 204.978163 
L 1258.987959 204.978163 
L 1258.987959 202.522382 
z
M 1263.469404 195.500351 
L 1270.611279 195.500351 
L 1270.611279 196.877538 
L 1266.916436 204.978163 
L 1264.535811 204.978163 
L 1268.033623 197.298007 
L 1263.469404 197.298007 
L 1263.469404 195.500351 
z
M 1272.514815 195.500351 
L 1279.65669 195.500351 
L 1279.65669 196.877538 
L 1275.961846 204.978163 
L 1273.581221 204.978163 
L 1277.079033 197.298007 
L 1272.514815 197.298007 
L 1272.514815 195.500351 
z
" style="fill: #f59e0b; opacity: 0.9; stroke: #ffffff; stroke-width: 3.5"/>
    <path d="M 1192.394443 204.273319 
Q 1191.480381 204.718163 1190.497256 204.941601 
Q 1189.514131 205.163007 1188.466006 205.163007 
Q 1186.097568 205.163007 1184.714287 203.838632 
Q 1183.331006 202.514257 1183.331006 200.249413 
Q 1183.331006 197.958163 1184.738662 196.643944 
Q 1186.14835 195.329726 1188.600068 195.329726 
Q 1189.5446 195.329726 1190.409912 195.508476 
Q 1191.277256 195.685194 1192.045068 196.034569 
L 1192.045068 197.994726 
Q 1191.252881 197.545819 1190.468818 197.324413 
Q 1189.684756 197.100976 1188.896631 197.100976 
Q 1187.438193 197.100976 1186.648037 197.917538 
Q 1185.857881 198.732069 1185.857881 200.249413 
Q 1185.857881 201.752538 1186.6196 202.573163 
Q 1187.381318 203.391757 1188.782881 203.391757 
Q 1189.164756 203.391757 1189.491787 203.345038 
Q 1189.818818 203.296288 1190.078818 203.194726 
L 1190.078818 201.354413 
L 1188.58585 201.354413 
L 1188.58585 199.715194 
L 1192.394443 199.715194 
L 1192.394443 204.273319 
z
M 1194.547822 195.500351 
L 1196.991416 195.500351 
L 1196.991416 203.131757 
L 1201.281416 203.131757 
L 1201.281416 204.978163 
L 1194.547822 204.978163 
L 1194.547822 195.500351 
z
M 1205.275108 197.348788 
L 1205.275108 203.131757 
L 1206.150576 203.131757 
Q 1207.647608 203.131757 1208.437764 202.388319 
Q 1209.229951 201.644882 1209.229951 200.229101 
Q 1209.229951 198.821444 1208.441826 198.086132 
Q 1207.655733 197.348788 1206.150576 197.348788 
L 1205.275108 197.348788 
z
M 1202.831514 195.500351 
L 1205.407139 195.500351 
Q 1207.566358 195.500351 1208.622608 195.809101 
Q 1209.678858 196.115819 1210.434483 196.853163 
Q 1211.100733 197.495038 1211.423701 198.333944 
Q 1211.748701 199.170819 1211.748701 200.229101 
Q 1211.748701 201.303632 1211.423701 202.144569 
Q 1211.100733 202.985507 1210.434483 203.625351 
Q 1209.672764 204.362694 1208.606358 204.671444 
Q 1207.539951 204.978163 1205.407139 204.978163 
L 1202.831514 204.978163 
L 1202.831514 195.500351 
z
M 1226.525537 206.889569 
L 1225.497725 206.889569 
L 1225.491631 204.978163 
Q 1224.697412 204.945663 1223.953975 204.801444 
Q 1223.212568 204.655194 1222.507725 204.393163 
L 1222.507725 202.731601 
Q 1223.238975 203.105351 1223.984443 203.306444 
Q 1224.729912 203.505507 1225.497725 203.529882 
L 1225.497725 201.557538 
L 1225.288506 201.518944 
Q 1223.771162 201.252851 1223.13335 200.682069 
Q 1222.495537 200.109257 1222.495537 199.036757 
Q 1222.495537 197.901288 1223.273506 197.263476 
Q 1224.051475 196.623632 1225.491631 196.566757 
L 1225.497725 195.100194 
L 1226.525537 195.100194 
L 1226.525537 196.542382 
Q 1227.161318 196.593163 1227.795068 196.700819 
Q 1228.43085 196.808476 1229.072725 196.979101 
L 1229.072725 198.591913 
Q 1228.436943 198.325819 1227.801162 198.177538 
Q 1227.167412 198.027226 1226.525537 197.994726 
L 1226.525537 199.816757 
L 1226.728662 199.855351 
Q 1228.341475 200.109257 1228.991475 200.702382 
Q 1229.643506 201.295507 1229.643506 202.457382 
Q 1229.643506 203.625351 1228.867568 204.250976 
Q 1228.093662 204.876601 1226.525537 204.965976 
L 1226.525537 206.889569 
z
M 1225.497725 199.670507 
L 1225.497725 198.015038 
Q 1225.046787 198.039413 1224.776631 198.258788 
Q 1224.508506 198.478163 1224.508506 198.815351 
Q 1224.508506 199.189101 1224.754287 199.402382 
Q 1225.0021 199.613632 1225.497725 199.670507 
z
M 1226.525537 201.740351 
L 1226.525537 203.505507 
Q 1227.078037 203.499413 1227.354287 203.290194 
Q 1227.630537 203.080976 1227.630537 202.660507 
Q 1227.630537 202.229882 1227.376631 202.016601 
Q 1227.122725 201.803319 1226.525537 201.740351 
z
M 1236.580479 199.867538 
Q 1237.539229 200.115351 1238.036885 200.728788 
Q 1238.536572 201.340194 1238.536572 202.286757 
Q 1238.536572 203.696444 1237.455947 204.429726 
Q 1236.377354 205.163007 1234.309541 205.163007 
Q 1233.578291 205.163007 1232.84501 205.045194 
Q 1232.111729 204.927382 1231.394697 204.691757 
L 1231.394697 202.806757 
Q 1232.08126 203.150038 1232.755635 203.324726 
Q 1233.432041 203.499413 1234.086104 203.499413 
Q 1235.057041 203.499413 1235.57501 203.164257 
Q 1236.092979 202.827069 1236.092979 202.197382 
Q 1236.092979 201.549413 1235.562822 201.216288 
Q 1235.032666 200.883163 1233.996729 200.883163 
L 1233.019697 200.883163 
L 1233.019697 199.308944 
L 1234.04751 199.308944 
Q 1234.969697 199.308944 1235.418604 199.020507 
Q 1235.869541 198.732069 1235.869541 198.140976 
Q 1235.869541 197.596601 1235.430791 197.298007 
Q 1234.994072 196.999413 1234.19376 196.999413 
Q 1233.604697 196.999413 1233.001416 197.133476 
Q 1232.398135 197.265507 1231.800947 197.525507 
L 1231.800947 195.735976 
Q 1232.524072 195.532851 1233.23501 195.431288 
Q 1233.945947 195.329726 1234.63251 195.329726 
Q 1236.478916 195.329726 1237.39501 195.937069 
Q 1238.313135 196.542382 1238.313135 197.761132 
Q 1238.313135 198.591913 1237.874385 199.122069 
Q 1237.437666 199.652226 1236.580479 199.867538 
z
M 1240.94792 195.500351 
L 1247.023389 195.500351 
L 1247.023389 197.298007 
L 1242.89792 197.298007 
L 1242.89792 198.764569 
Q 1243.176201 198.687382 1243.458545 198.646757 
Q 1243.740889 198.604101 1244.045576 198.604101 
Q 1245.778233 198.604101 1246.743076 199.471444 
Q 1247.70792 200.338788 1247.70792 201.886601 
Q 1247.70792 203.422226 1246.657764 204.293632 
Q 1245.607608 205.163007 1243.740889 205.163007 
Q 1242.934483 205.163007 1242.144326 205.006601 
Q 1241.35417 204.850194 1240.57417 204.533319 
L 1240.57417 202.609726 
Q 1241.348076 203.054569 1242.042764 203.278007 
Q 1242.737451 203.499413 1243.354951 203.499413 
Q 1244.242608 203.499413 1244.752451 203.064726 
Q 1245.264326 202.630038 1245.264326 201.886601 
Q 1245.264326 201.137069 1244.752451 200.706444 
Q 1244.242608 200.273788 1243.354951 200.273788 
Q 1242.826826 200.273788 1242.229639 200.411913 
Q 1241.634483 200.548007 1240.94792 200.832382 
L 1240.94792 195.500351 
z
M 1249.99333 195.500351 
L 1256.068799 195.500351 
L 1256.068799 197.298007 
L 1251.94333 197.298007 
L 1251.94333 198.764569 
Q 1252.221611 198.687382 1252.503955 198.646757 
Q 1252.786299 198.604101 1253.090986 198.604101 
Q 1254.823643 198.604101 1255.788486 199.471444 
Q 1256.75333 200.338788 1256.75333 201.886601 
Q 1256.75333 203.422226 1255.703174 204.293632 
Q 1254.653018 205.163007 1252.786299 205.163007 
Q 1251.979893 205.163007 1251.189736 205.006601 
Q 1250.39958 204.850194 1249.61958 204.533319 
L 1249.61958 202.609726 
Q 1250.393486 203.054569 1251.088174 203.278007 
Q 1251.782861 203.499413 1252.400361 203.499413 
Q 1253.288018 203.499413 1253.797861 203.064726 
Q 1254.309736 202.630038 1254.309736 201.886601 
Q 1254.309736 201.137069 1253.797861 200.706444 
Q 1253.288018 200.273788 1252.400361 200.273788 
Q 1251.872236 200.273788 1251.275049 200.411913 
Q 1250.679893 200.548007 1249.99333 200.832382 
L 1249.99333 195.500351 
z
M 1258.987959 202.522382 
L 1261.273115 202.522382 
L 1261.273115 204.978163 
L 1258.987959 204.978163 
L 1258.987959 202.522382 
z
M 1263.469404 195.500351 
L 1270.611279 195.500351 
L 1270.611279 196.877538 
L 1266.916436 204.978163 
L 1264.535811 204.978163 
L 1268.033623 197.298007 
L 1263.469404 197.298007 
L 1263.469404 195.500351 
z
M 1272.514815 195.500351 
L 1279.65669 195.500351 
L 1279.65669 196.877538 
L 1275.961846 204.978163 
L 1273.581221 204.978163 
L 1277.079033 197.298007 
L 1272.514815 197.298007 
L 1272.514815 195.500351 
z
" style="fill: #f59e0b"/>
   </g>
   <g id="text_22">
    <path d="M 1190.47085 24.325622 
L 1190.47085 26.332497 
Q 1189.69085 25.983122 1188.947412 25.806403 
Q 1188.206006 25.627653 1187.54585 25.627653 
Q 1186.670381 25.627653 1186.249912 25.869372 
Q 1185.831475 26.109059 1185.831475 26.616872 
Q 1185.831475 26.998747 1186.113818 27.212028 
Q 1186.396162 27.423278 1187.1396 27.575622 
L 1188.1796 27.784841 
Q 1189.759912 28.103747 1190.426162 28.751716 
Q 1191.094443 29.397653 1191.094443 30.592028 
Q 1191.094443 32.158122 1190.164131 32.923903 
Q 1189.233818 33.689684 1187.322412 33.689684 
Q 1186.422568 33.689684 1185.5146 33.517028 
Q 1184.606631 33.346403 1183.698662 33.009216 
L 1183.698662 30.947497 
Q 1184.606631 31.428903 1185.453662 31.674684 
Q 1186.300693 31.918434 1187.088818 31.918434 
Q 1187.889131 31.918434 1188.313662 31.652341 
Q 1188.738193 31.384216 1188.738193 30.888591 
Q 1188.738193 30.445778 1188.449756 30.204059 
Q 1188.161318 29.962341 1187.298037 29.771403 
L 1186.351475 29.562184 
Q 1184.9296 29.257497 1184.271475 28.591247 
Q 1183.615381 27.924997 1183.615381 26.795622 
Q 1183.615381 25.379841 1184.529443 24.618122 
Q 1185.443506 23.856403 1187.157881 23.856403 
Q 1187.939912 23.856403 1188.7646 23.974216 
Q 1189.589287 24.092028 1190.47085 24.325622 
z
M 1193.240205 24.027028 
L 1197.29458 24.027028 
Q 1199.104424 24.027028 1200.071299 24.831403 
Q 1201.040205 25.633747 1201.040205 27.118591 
Q 1201.040205 28.611559 1200.071299 29.413903 
Q 1199.104424 30.216247 1197.29458 30.216247 
L 1195.683799 30.216247 
L 1195.683799 33.504841 
L 1193.240205 33.504841 
L 1193.240205 24.027028 
z
M 1195.683799 25.798278 
L 1195.683799 28.444997 
L 1197.03458 28.444997 
Q 1197.745518 28.444997 1198.133486 28.099684 
Q 1198.521455 27.754372 1198.521455 27.118591 
Q 1198.521455 26.484841 1198.133486 26.141559 
Q 1197.745518 25.798278 1197.03458 25.798278 
L 1195.683799 25.798278 
z
M 1201.445693 24.027028 
L 1204.118818 24.027028 
L 1206.278037 27.404997 
L 1208.435225 24.027028 
L 1211.114443 24.027028 
L 1207.502881 29.511403 
L 1207.502881 33.504841 
L 1205.059287 33.504841 
L 1205.059287 29.511403 
L 1201.445693 24.027028 
z
M 1225.084619 35.416247 
L 1224.056807 35.416247 
L 1224.050713 33.504841 
Q 1223.256494 33.472341 1222.513057 33.328122 
Q 1221.77165 33.181872 1221.066807 32.919841 
L 1221.066807 31.258278 
Q 1221.798057 31.632028 1222.543525 31.833122 
Q 1223.288994 32.032184 1224.056807 32.056559 
L 1224.056807 30.084216 
L 1223.847588 30.045622 
Q 1222.330244 29.779528 1221.692432 29.208747 
Q 1221.054619 28.635934 1221.054619 27.563434 
Q 1221.054619 26.427966 1221.832588 25.790153 
Q 1222.610557 25.150309 1224.050713 25.093434 
L 1224.056807 23.626872 
L 1225.084619 23.626872 
L 1225.084619 25.069059 
Q 1225.7204 25.119841 1226.35415 25.227497 
Q 1226.989932 25.335153 1227.631807 25.505778 
L 1227.631807 27.118591 
Q 1226.996025 26.852497 1226.360244 26.704216 
Q 1225.726494 26.553903 1225.084619 26.521403 
L 1225.084619 28.343434 
L 1225.287744 28.382028 
Q 1226.900557 28.635934 1227.550557 29.229059 
Q 1228.202588 29.822184 1228.202588 30.984059 
Q 1228.202588 32.152028 1227.42665 32.777653 
Q 1226.652744 33.403278 1225.084619 33.492653 
L 1225.084619 35.416247 
z
M 1224.056807 28.197184 
L 1224.056807 26.541716 
Q 1223.605869 26.566091 1223.335713 26.785466 
Q 1223.067588 27.004841 1223.067588 27.342028 
Q 1223.067588 27.715778 1223.313369 27.929059 
Q 1223.561182 28.140309 1224.056807 28.197184 
z
M 1225.084619 30.267028 
L 1225.084619 32.032184 
Q 1225.637119 32.026091 1225.913369 31.816872 
Q 1226.189619 31.607653 1226.189619 31.187184 
Q 1226.189619 30.756559 1225.935713 30.543278 
Q 1225.681807 30.329997 1225.084619 30.267028 
z
M 1233.788779 28.826872 
Q 1233.146904 28.826872 1232.825967 29.243278 
Q 1232.505029 29.657653 1232.505029 30.490466 
Q 1232.505029 31.321247 1232.825967 31.737653 
Q 1233.146904 32.152028 1233.788779 32.152028 
Q 1234.434717 32.152028 1234.755654 31.737653 
Q 1235.076592 31.321247 1235.076592 30.490466 
Q 1235.076592 29.657653 1234.755654 29.243278 
Q 1234.434717 28.826872 1233.788779 28.826872 
z
M 1236.809248 24.274841 
L 1236.809248 26.027809 
Q 1236.205967 25.741403 1235.671748 25.605309 
Q 1235.139561 25.469216 1234.631748 25.469216 
Q 1233.540967 25.469216 1232.931592 26.076559 
Q 1232.322217 26.681872 1232.220654 27.874216 
Q 1232.639092 27.563434 1233.126592 27.409059 
Q 1233.616123 27.252653 1234.195029 27.252653 
Q 1235.647373 27.252653 1236.539092 28.103747 
Q 1237.430811 28.952809 1237.430811 30.329997 
Q 1237.430811 31.853434 1236.433467 32.771559 
Q 1235.438154 33.689684 1233.762373 33.689684 
Q 1231.915967 33.689684 1230.902373 32.442497 
Q 1229.890811 31.193278 1229.890811 28.902028 
Q 1229.890811 26.553903 1231.075029 25.211247 
Q 1232.259248 23.868591 1234.320967 23.868591 
Q 1234.975029 23.868591 1235.590498 23.970153 
Q 1236.205967 24.071716 1236.809248 24.274841 
z
M 1242.83419 28.826872 
Q 1242.192315 28.826872 1241.871377 29.243278 
Q 1241.55044 29.657653 1241.55044 30.490466 
Q 1241.55044 31.321247 1241.871377 31.737653 
Q 1242.192315 32.152028 1242.83419 32.152028 
Q 1243.480127 32.152028 1243.801065 31.737653 
Q 1244.122002 31.321247 1244.122002 30.490466 
Q 1244.122002 29.657653 1243.801065 29.243278 
Q 1243.480127 28.826872 1242.83419 28.826872 
z
M 1245.854658 24.274841 
L 1245.854658 26.027809 
Q 1245.251377 25.741403 1244.717158 25.605309 
Q 1244.184971 25.469216 1243.677158 25.469216 
Q 1242.586377 25.469216 1241.977002 26.076559 
Q 1241.367627 26.681872 1241.266065 27.874216 
Q 1241.684502 27.563434 1242.172002 27.409059 
Q 1242.661533 27.252653 1243.24044 27.252653 
Q 1244.692783 27.252653 1245.584502 28.103747 
Q 1246.476221 28.952809 1246.476221 30.329997 
Q 1246.476221 31.853434 1245.478877 32.771559 
Q 1244.483565 33.689684 1242.807783 33.689684 
Q 1240.961377 33.689684 1239.947783 32.442497 
Q 1238.936221 31.193278 1238.936221 28.902028 
Q 1238.936221 26.553903 1240.12044 25.211247 
Q 1241.304658 23.868591 1243.366377 23.868591 
Q 1244.02044 23.868591 1244.635908 23.970153 
Q 1245.251377 24.071716 1245.854658 24.274841 
z
M 1251.70085 29.263591 
Q 1251.016318 29.263591 1250.646631 29.639372 
Q 1250.278975 30.013122 1250.278975 30.711872 
Q 1250.278975 31.410622 1250.646631 31.782341 
Q 1251.016318 32.152028 1251.70085 32.152028 
Q 1252.381318 32.152028 1252.742881 31.782341 
Q 1253.104443 31.410622 1253.104443 30.711872 
Q 1253.104443 30.007028 1252.742881 29.635309 
Q 1252.381318 29.263591 1251.70085 29.263591 
z
M 1249.917412 28.459216 
Q 1249.054131 28.197184 1248.615381 27.658903 
Q 1248.178662 27.118591 1248.178662 26.312184 
Q 1248.178662 25.113747 1249.072412 24.486091 
Q 1249.968193 23.856403 1251.70085 23.856403 
Q 1253.421318 23.856403 1254.315068 24.482028 
Q 1255.21085 25.107653 1255.21085 26.312184 
Q 1255.21085 27.118591 1254.770068 27.658903 
Q 1254.329287 28.197184 1253.466006 28.459216 
Q 1254.43085 28.725309 1254.922412 29.324528 
Q 1255.413975 29.923747 1255.413975 30.837809 
Q 1255.413975 32.247497 1254.477568 32.968591 
Q 1253.541162 33.689684 1251.70085 33.689684 
Q 1249.854443 33.689684 1248.911943 32.968591 
Q 1247.969443 32.247497 1247.969443 30.837809 
Q 1247.969443 29.923747 1248.461006 29.324528 
Q 1248.952568 28.725309 1249.917412 28.459216 
z
M 1250.488193 26.559997 
Q 1250.488193 27.124684 1250.803037 27.429372 
Q 1251.117881 27.734059 1251.70085 27.734059 
Q 1252.271631 27.734059 1252.582412 27.429372 
Q 1252.895225 27.124684 1252.895225 26.559997 
Q 1252.895225 25.995309 1252.582412 25.694684 
Q 1252.271631 25.392028 1251.70085 25.392028 
Q 1251.117881 25.392028 1250.803037 25.696716 
Q 1250.488193 26.001403 1250.488193 26.559997 
z
M 1257.547041 31.049059 
L 1259.832197 31.049059 
L 1259.832197 33.504841 
L 1257.547041 33.504841 
L 1257.547041 31.049059 
z
M 1262.536299 24.027028 
L 1268.611768 24.027028 
L 1268.611768 25.824684 
L 1264.486299 25.824684 
L 1264.486299 27.291247 
Q 1264.76458 27.214059 1265.046924 27.173434 
Q 1265.329268 27.130778 1265.633955 27.130778 
Q 1267.366611 27.130778 1268.331455 27.998122 
Q 1269.296299 28.865466 1269.296299 30.413278 
Q 1269.296299 31.948903 1268.246143 32.820309 
Q 1267.195986 33.689684 1265.329268 33.689684 
Q 1264.522861 33.689684 1263.732705 33.533278 
Q 1262.942549 33.376872 1262.162549 33.059997 
L 1262.162549 31.136403 
Q 1262.936455 31.581247 1263.631143 31.804684 
Q 1264.32583 32.026091 1264.94333 32.026091 
Q 1265.830986 32.026091 1266.34083 31.591403 
Q 1266.852705 31.156716 1266.852705 30.413278 
Q 1266.852705 29.663747 1266.34083 29.233122 
Q 1265.830986 28.800466 1264.94333 28.800466 
Q 1264.415205 28.800466 1263.818018 28.938591 
Q 1263.222861 29.074684 1262.536299 29.359059 
L 1262.536299 24.027028 
z
M 1274.908897 28.826872 
Q 1274.267022 28.826872 1273.946084 29.243278 
Q 1273.625147 29.657653 1273.625147 30.490466 
Q 1273.625147 31.321247 1273.946084 31.737653 
Q 1274.267022 32.152028 1274.908897 32.152028 
Q 1275.554834 32.152028 1275.875772 31.737653 
Q 1276.196709 31.321247 1276.196709 30.490466 
Q 1276.196709 29.657653 1275.875772 29.243278 
Q 1275.554834 28.826872 1274.908897 28.826872 
z
M 1277.929365 24.274841 
L 1277.929365 26.027809 
Q 1277.326084 25.741403 1276.791865 25.605309 
Q 1276.259678 25.469216 1275.751865 25.469216 
Q 1274.661084 25.469216 1274.051709 26.076559 
Q 1273.442334 26.681872 1273.340772 27.874216 
Q 1273.759209 27.563434 1274.246709 27.409059 
Q 1274.73624 27.252653 1275.315147 27.252653 
Q 1276.76749 27.252653 1277.659209 28.103747 
Q 1278.550928 28.952809 1278.550928 30.329997 
Q 1278.550928 31.853434 1277.553584 32.771559 
Q 1276.558272 33.689684 1274.88249 33.689684 
Q 1273.036084 33.689684 1272.02249 32.442497 
Q 1271.010928 31.193278 1271.010928 28.902028 
Q 1271.010928 26.553903 1272.195147 25.211247 
Q 1273.379365 23.868591 1275.441084 23.868591 
Q 1276.095147 23.868591 1276.710615 23.970153 
Q 1277.326084 24.071716 1277.929365 24.274841 
z
" style="fill: #6559f9; opacity: 0.9; stroke: #ffffff; stroke-width: 3.5"/>
    <path d="M 1190.47085 24.325622 
L 1190.47085 26.332497 
Q 1189.69085 25.983122 1188.947412 25.806403 
Q 1188.206006 25.627653 1187.54585 25.627653 
Q 1186.670381 25.627653 1186.249912 25.869372 
Q 1185.831475 26.109059 1185.831475 26.616872 
Q 1185.831475 26.998747 1186.113818 27.212028 
Q 1186.396162 27.423278 1187.1396 27.575622 
L 1188.1796 27.784841 
Q 1189.759912 28.103747 1190.426162 28.751716 
Q 1191.094443 29.397653 1191.094443 30.592028 
Q 1191.094443 32.158122 1190.164131 32.923903 
Q 1189.233818 33.689684 1187.322412 33.689684 
Q 1186.422568 33.689684 1185.5146 33.517028 
Q 1184.606631 33.346403 1183.698662 33.009216 
L 1183.698662 30.947497 
Q 1184.606631 31.428903 1185.453662 31.674684 
Q 1186.300693 31.918434 1187.088818 31.918434 
Q 1187.889131 31.918434 1188.313662 31.652341 
Q 1188.738193 31.384216 1188.738193 30.888591 
Q 1188.738193 30.445778 1188.449756 30.204059 
Q 1188.161318 29.962341 1187.298037 29.771403 
L 1186.351475 29.562184 
Q 1184.9296 29.257497 1184.271475 28.591247 
Q 1183.615381 27.924997 1183.615381 26.795622 
Q 1183.615381 25.379841 1184.529443 24.618122 
Q 1185.443506 23.856403 1187.157881 23.856403 
Q 1187.939912 23.856403 1188.7646 23.974216 
Q 1189.589287 24.092028 1190.47085 24.325622 
z
M 1193.240205 24.027028 
L 1197.29458 24.027028 
Q 1199.104424 24.027028 1200.071299 24.831403 
Q 1201.040205 25.633747 1201.040205 27.118591 
Q 1201.040205 28.611559 1200.071299 29.413903 
Q 1199.104424 30.216247 1197.29458 30.216247 
L 1195.683799 30.216247 
L 1195.683799 33.504841 
L 1193.240205 33.504841 
L 1193.240205 24.027028 
z
M 1195.683799 25.798278 
L 1195.683799 28.444997 
L 1197.03458 28.444997 
Q 1197.745518 28.444997 1198.133486 28.099684 
Q 1198.521455 27.754372 1198.521455 27.118591 
Q 1198.521455 26.484841 1198.133486 26.141559 
Q 1197.745518 25.798278 1197.03458 25.798278 
L 1195.683799 25.798278 
z
M 1201.445693 24.027028 
L 1204.118818 24.027028 
L 1206.278037 27.404997 
L 1208.435225 24.027028 
L 1211.114443 24.027028 
L 1207.502881 29.511403 
L 1207.502881 33.504841 
L 1205.059287 33.504841 
L 1205.059287 29.511403 
L 1201.445693 24.027028 
z
M 1225.084619 35.416247 
L 1224.056807 35.416247 
L 1224.050713 33.504841 
Q 1223.256494 33.472341 1222.513057 33.328122 
Q 1221.77165 33.181872 1221.066807 32.919841 
L 1221.066807 31.258278 
Q 1221.798057 31.632028 1222.543525 31.833122 
Q 1223.288994 32.032184 1224.056807 32.056559 
L 1224.056807 30.084216 
L 1223.847588 30.045622 
Q 1222.330244 29.779528 1221.692432 29.208747 
Q 1221.054619 28.635934 1221.054619 27.563434 
Q 1221.054619 26.427966 1221.832588 25.790153 
Q 1222.610557 25.150309 1224.050713 25.093434 
L 1224.056807 23.626872 
L 1225.084619 23.626872 
L 1225.084619 25.069059 
Q 1225.7204 25.119841 1226.35415 25.227497 
Q 1226.989932 25.335153 1227.631807 25.505778 
L 1227.631807 27.118591 
Q 1226.996025 26.852497 1226.360244 26.704216 
Q 1225.726494 26.553903 1225.084619 26.521403 
L 1225.084619 28.343434 
L 1225.287744 28.382028 
Q 1226.900557 28.635934 1227.550557 29.229059 
Q 1228.202588 29.822184 1228.202588 30.984059 
Q 1228.202588 32.152028 1227.42665 32.777653 
Q 1226.652744 33.403278 1225.084619 33.492653 
L 1225.084619 35.416247 
z
M 1224.056807 28.197184 
L 1224.056807 26.541716 
Q 1223.605869 26.566091 1223.335713 26.785466 
Q 1223.067588 27.004841 1223.067588 27.342028 
Q 1223.067588 27.715778 1223.313369 27.929059 
Q 1223.561182 28.140309 1224.056807 28.197184 
z
M 1225.084619 30.267028 
L 1225.084619 32.032184 
Q 1225.637119 32.026091 1225.913369 31.816872 
Q 1226.189619 31.607653 1226.189619 31.187184 
Q 1226.189619 30.756559 1225.935713 30.543278 
Q 1225.681807 30.329997 1225.084619 30.267028 
z
M 1233.788779 28.826872 
Q 1233.146904 28.826872 1232.825967 29.243278 
Q 1232.505029 29.657653 1232.505029 30.490466 
Q 1232.505029 31.321247 1232.825967 31.737653 
Q 1233.146904 32.152028 1233.788779 32.152028 
Q 1234.434717 32.152028 1234.755654 31.737653 
Q 1235.076592 31.321247 1235.076592 30.490466 
Q 1235.076592 29.657653 1234.755654 29.243278 
Q 1234.434717 28.826872 1233.788779 28.826872 
z
M 1236.809248 24.274841 
L 1236.809248 26.027809 
Q 1236.205967 25.741403 1235.671748 25.605309 
Q 1235.139561 25.469216 1234.631748 25.469216 
Q 1233.540967 25.469216 1232.931592 26.076559 
Q 1232.322217 26.681872 1232.220654 27.874216 
Q 1232.639092 27.563434 1233.126592 27.409059 
Q 1233.616123 27.252653 1234.195029 27.252653 
Q 1235.647373 27.252653 1236.539092 28.103747 
Q 1237.430811 28.952809 1237.430811 30.329997 
Q 1237.430811 31.853434 1236.433467 32.771559 
Q 1235.438154 33.689684 1233.762373 33.689684 
Q 1231.915967 33.689684 1230.902373 32.442497 
Q 1229.890811 31.193278 1229.890811 28.902028 
Q 1229.890811 26.553903 1231.075029 25.211247 
Q 1232.259248 23.868591 1234.320967 23.868591 
Q 1234.975029 23.868591 1235.590498 23.970153 
Q 1236.205967 24.071716 1236.809248 24.274841 
z
M 1242.83419 28.826872 
Q 1242.192315 28.826872 1241.871377 29.243278 
Q 1241.55044 29.657653 1241.55044 30.490466 
Q 1241.55044 31.321247 1241.871377 31.737653 
Q 1242.192315 32.152028 1242.83419 32.152028 
Q 1243.480127 32.152028 1243.801065 31.737653 
Q 1244.122002 31.321247 1244.122002 30.490466 
Q 1244.122002 29.657653 1243.801065 29.243278 
Q 1243.480127 28.826872 1242.83419 28.826872 
z
M 1245.854658 24.274841 
L 1245.854658 26.027809 
Q 1245.251377 25.741403 1244.717158 25.605309 
Q 1244.184971 25.469216 1243.677158 25.469216 
Q 1242.586377 25.469216 1241.977002 26.076559 
Q 1241.367627 26.681872 1241.266065 27.874216 
Q 1241.684502 27.563434 1242.172002 27.409059 
Q 1242.661533 27.252653 1243.24044 27.252653 
Q 1244.692783 27.252653 1245.584502 28.103747 
Q 1246.476221 28.952809 1246.476221 30.329997 
Q 1246.476221 31.853434 1245.478877 32.771559 
Q 1244.483565 33.689684 1242.807783 33.689684 
Q 1240.961377 33.689684 1239.947783 32.442497 
Q 1238.936221 31.193278 1238.936221 28.902028 
Q 1238.936221 26.553903 1240.12044 25.211247 
Q 1241.304658 23.868591 1243.366377 23.868591 
Q 1244.02044 23.868591 1244.635908 23.970153 
Q 1245.251377 24.071716 1245.854658 24.274841 
z
M 1251.70085 29.263591 
Q 1251.016318 29.263591 1250.646631 29.639372 
Q 1250.278975 30.013122 1250.278975 30.711872 
Q 1250.278975 31.410622 1250.646631 31.782341 
Q 1251.016318 32.152028 1251.70085 32.152028 
Q 1252.381318 32.152028 1252.742881 31.782341 
Q 1253.104443 31.410622 1253.104443 30.711872 
Q 1253.104443 30.007028 1252.742881 29.635309 
Q 1252.381318 29.263591 1251.70085 29.263591 
z
M 1249.917412 28.459216 
Q 1249.054131 28.197184 1248.615381 27.658903 
Q 1248.178662 27.118591 1248.178662 26.312184 
Q 1248.178662 25.113747 1249.072412 24.486091 
Q 1249.968193 23.856403 1251.70085 23.856403 
Q 1253.421318 23.856403 1254.315068 24.482028 
Q 1255.21085 25.107653 1255.21085 26.312184 
Q 1255.21085 27.118591 1254.770068 27.658903 
Q 1254.329287 28.197184 1253.466006 28.459216 
Q 1254.43085 28.725309 1254.922412 29.324528 
Q 1255.413975 29.923747 1255.413975 30.837809 
Q 1255.413975 32.247497 1254.477568 32.968591 
Q 1253.541162 33.689684 1251.70085 33.689684 
Q 1249.854443 33.689684 1248.911943 32.968591 
Q 1247.969443 32.247497 1247.969443 30.837809 
Q 1247.969443 29.923747 1248.461006 29.324528 
Q 1248.952568 28.725309 1249.917412 28.459216 
z
M 1250.488193 26.559997 
Q 1250.488193 27.124684 1250.803037 27.429372 
Q 1251.117881 27.734059 1251.70085 27.734059 
Q 1252.271631 27.734059 1252.582412 27.429372 
Q 1252.895225 27.124684 1252.895225 26.559997 
Q 1252.895225 25.995309 1252.582412 25.694684 
Q 1252.271631 25.392028 1251.70085 25.392028 
Q 1251.117881 25.392028 1250.803037 25.696716 
Q 1250.488193 26.001403 1250.488193 26.559997 
z
M 1257.547041 31.049059 
L 1259.832197 31.049059 
L 1259.832197 33.504841 
L 1257.547041 33.504841 
L 1257.547041 31.049059 
z
M 1262.536299 24.027028 
L 1268.611768 24.027028 
L 1268.611768 25.824684 
L 1264.486299 25.824684 
L 1264.486299 27.291247 
Q 1264.76458 27.214059 1265.046924 27.173434 
Q 1265.329268 27.130778 1265.633955 27.130778 
Q 1267.366611 27.130778 1268.331455 27.998122 
Q 1269.296299 28.865466 1269.296299 30.413278 
Q 1269.296299 31.948903 1268.246143 32.820309 
Q 1267.195986 33.689684 1265.329268 33.689684 
Q 1264.522861 33.689684 1263.732705 33.533278 
Q 1262.942549 33.376872 1262.162549 33.059997 
L 1262.162549 31.136403 
Q 1262.936455 31.581247 1263.631143 31.804684 
Q 1264.32583 32.026091 1264.94333 32.026091 
Q 1265.830986 32.026091 1266.34083 31.591403 
Q 1266.852705 31.156716 1266.852705 30.413278 
Q 1266.852705 29.663747 1266.34083 29.233122 
Q 1265.830986 28.800466 1264.94333 28.800466 
Q 1264.415205 28.800466 1263.818018 28.938591 
Q 1263.222861 29.074684 1262.536299 29.359059 
L 1262.536299 24.027028 
z
M 1274.908897 28.826872 
Q 1274.267022 28.826872 1273.946084 29.243278 
Q 1273.625147 29.657653 1273.625147 30.490466 
Q 1273.625147 31.321247 1273.946084 31.737653 
Q 1274.267022 32.152028 1274.908897 32.152028 
Q 1275.554834 32.152028 1275.875772 31.737653 
Q 1276.196709 31.321247 1276.196709 30.490466 
Q 1276.196709 29.657653 1275.875772 29.243278 
Q 1275.554834 28.826872 1274.908897 28.826872 
z
M 1277.929365 24.274841 
L 1277.929365 26.027809 
Q 1277.326084 25.741403 1276.791865 25.605309 
Q 1276.259678 25.469216 1275.751865 25.469216 
Q 1274.661084 25.469216 1274.051709 26.076559 
Q 1273.442334 26.681872 1273.340772 27.874216 
Q 1273.759209 27.563434 1274.246709 27.409059 
Q 1274.73624 27.252653 1275.315147 27.252653 
Q 1276.76749 27.252653 1277.659209 28.103747 
Q 1278.550928 28.952809 1278.550928 30.329997 
Q 1278.550928 31.853434 1277.553584 32.771559 
Q 1276.558272 33.689684 1274.88249 33.689684 
Q 1273.036084 33.689684 1272.02249 32.442497 
Q 1271.010928 31.193278 1271.010928 28.902028 
Q 1271.010928 26.553903 1272.195147 25.211247 
Q 1273.379365 23.868591 1275.441084 23.868591 
Q 1276.095147 23.868591 1276.710615 23.970153 
Q 1277.326084 24.071716 1277.929365 24.274841 
z
" style="fill: #6559f9"/>
   </g>
  </g>
 </g>
 <defs>
  <clipPath id="p240094f201">
   <rect x="63.821562" y="7.2" width="1129.207618" height="372.78"/>
  </clipPath>
 </defs>
</svg>
